<?xml version="1.0" encoding="utf-8"?>
<!-- Generator: Adobe Illustrator 27.9.4, SVG Export Plug-In . SVG Version: 9.03 Build 54784)  -->
<svg version="1.1" id="Layer_1" xmlns="http://www.w3.org/2000/svg" xmlns:xlink="http://www.w3.org/1999/xlink" x="0px" y="0px"
	 viewBox="0 0 381 333.9" style="enable-background:new 0 0 381 333.9;" xml:space="preserve">
<style type="text/css">
	.st0{display:none;}
	.st1{fill:#FFFFFF;}
	.st2{font-family:'NotoSansKR-SemiBold';}
	.st3{font-size:6px;}
</style>
<g id="Layer_1_00000016759826528853493710000008281277929905837758_" class="st0">
</g>
<path class="st1" d="M312.38,327.85c-0.8,0-1.5-0.7-1.5-1.5v-55.1c0-10.7-0.9-12.6-12.6-12.6H90.48c-17.9,0-19.3-8.4-19.3-19.3
	v-61.3c0-11.4,7.1-18.7,18.2-18.7h234.1c12.6,0,14.7-5.4,14.7-17.5v-67.4c0-1.3,0.1-2.6,0.1-3.9c0.2-5.3,0.4-10.2-2.6-13.4
	c-2.5-2.6-6.9-3.8-13.7-3.8H66.28c-0.8,0-1.5-0.7-1.5-1.5s0.7-1.5,1.5-1.5h255.7c7.6,0,12.8,1.6,15.8,4.7c3.9,4.1,3.7,9.9,3.5,15.6
	c-0.1,1.3-0.1,2.6-0.1,3.8v67.5c0,10.8-1.4,20.5-17.7,20.5H89.38c-9.5,0-15.2,5.9-15.2,15.7v61.3c0,10.1,1.1,16.3,16.3,16.3h207.8
	c13.5,0,15.6,3.5,15.6,15.6v55.1C313.88,327.25,313.18,327.85,312.38,327.85z"/>
<circle class="st1" cx="74.24" cy="51.85" r="5.4"/>
<g>
	<g>
		<path class="st1" d="M56.55,73.78h-4.05v-0.84L54,71.28c0.3-0.33,0.54-0.61,0.73-0.85c0.19-0.24,0.33-0.46,0.42-0.66
			s0.14-0.43,0.14-0.67c0-0.29-0.08-0.51-0.23-0.66c-0.16-0.15-0.36-0.22-0.61-0.22c-0.25,0-0.48,0.06-0.7,0.17
			c-0.22,0.11-0.44,0.27-0.67,0.47l-0.57-0.75c0.17-0.16,0.34-0.3,0.53-0.43s0.4-0.23,0.64-0.31c0.24-0.08,0.51-0.12,0.83-0.12
			c0.38,0,0.71,0.07,0.98,0.22c0.27,0.15,0.49,0.35,0.63,0.61c0.15,0.26,0.22,0.56,0.22,0.9c0,0.35-0.06,0.67-0.19,0.96
			c-0.13,0.29-0.31,0.58-0.55,0.87c-0.24,0.29-0.53,0.6-0.86,0.94l-0.94,0.98v0.05h2.74V73.78z"/>
		<path class="st1" d="M61.27,70.56c0,0.52-0.04,0.98-0.11,1.39c-0.07,0.41-0.19,0.75-0.35,1.04c-0.16,0.29-0.37,0.5-0.63,0.65
			c-0.26,0.15-0.57,0.22-0.94,0.22c-0.46,0-0.85-0.13-1.14-0.4c-0.3-0.26-0.52-0.64-0.66-1.13c-0.14-0.49-0.22-1.08-0.22-1.77
			c0-0.7,0.07-1.29,0.2-1.78c0.13-0.49,0.35-0.87,0.64-1.13c0.3-0.26,0.69-0.4,1.18-0.4c0.46,0,0.85,0.13,1.14,0.39
			c0.3,0.26,0.52,0.64,0.67,1.13S61.27,69.87,61.27,70.56z M58.27,70.56c0,0.52,0.03,0.96,0.09,1.31c0.06,0.35,0.16,0.61,0.3,0.79
			c0.14,0.18,0.33,0.27,0.58,0.27s0.44-0.09,0.58-0.26s0.24-0.44,0.31-0.79s0.1-0.79,0.1-1.32s-0.03-0.97-0.1-1.32
			c-0.06-0.35-0.17-0.61-0.31-0.79c-0.14-0.18-0.33-0.27-0.58-0.27s-0.44,0.09-0.58,0.27c-0.14,0.18-0.24,0.44-0.3,0.79
			C58.3,69.59,58.27,70.03,58.27,70.56z"/>
		<path class="st1" d="M66.03,73.78h-4.05v-0.84l1.51-1.66c0.3-0.33,0.54-0.61,0.73-0.85c0.19-0.24,0.33-0.46,0.42-0.66
			s0.14-0.43,0.14-0.67c0-0.29-0.08-0.51-0.23-0.66c-0.16-0.15-0.36-0.22-0.61-0.22c-0.25,0-0.48,0.06-0.7,0.17
			c-0.22,0.11-0.44,0.27-0.67,0.47l-0.57-0.75c0.17-0.16,0.34-0.3,0.53-0.43s0.4-0.23,0.64-0.31c0.24-0.08,0.51-0.12,0.83-0.12
			c0.38,0,0.71,0.07,0.98,0.22c0.27,0.15,0.49,0.35,0.63,0.61c0.15,0.26,0.22,0.56,0.22,0.9c0,0.35-0.06,0.67-0.19,0.96
			c-0.13,0.29-0.31,0.58-0.55,0.87c-0.24,0.29-0.53,0.6-0.86,0.94l-0.94,0.98v0.05h2.74V73.78z"/>
		<path class="st1" d="M70.54,68.82c0,0.29-0.05,0.54-0.16,0.76c-0.11,0.22-0.26,0.39-0.44,0.53c-0.19,0.13-0.41,0.23-0.65,0.29
			v0.03c0.48,0.06,0.83,0.22,1.08,0.48s0.36,0.6,0.36,1.03c0,0.37-0.08,0.71-0.25,1s-0.42,0.52-0.77,0.69s-0.79,0.25-1.33,0.25
			c-0.32,0-0.62-0.03-0.9-0.09c-0.28-0.06-0.54-0.15-0.78-0.27v-1c0.25,0.14,0.51,0.24,0.8,0.31c0.28,0.07,0.55,0.11,0.8,0.11
			c0.48,0,0.82-0.09,1.02-0.28c0.2-0.19,0.3-0.45,0.3-0.79c0-0.22-0.05-0.39-0.15-0.53s-0.26-0.24-0.48-0.31
			c-0.22-0.07-0.52-0.1-0.88-0.1h-0.5v-0.91h0.51c0.35,0,0.62-0.04,0.83-0.13c0.2-0.08,0.35-0.2,0.43-0.35
			c0.09-0.15,0.13-0.32,0.13-0.52c0-0.26-0.08-0.46-0.23-0.6c-0.15-0.14-0.39-0.22-0.7-0.22c-0.2,0-0.38,0.02-0.54,0.07
			c-0.16,0.05-0.31,0.11-0.44,0.18c-0.13,0.08-0.26,0.15-0.37,0.24l-0.5-0.78c0.22-0.18,0.49-0.33,0.8-0.46
			c0.31-0.13,0.68-0.19,1.1-0.19c0.61,0,1.09,0.14,1.42,0.42C70.37,67.96,70.54,68.34,70.54,68.82z"/>
		<path class="st1" d="M71.63,73.2c0-0.26,0.06-0.44,0.18-0.54c0.12-0.1,0.27-0.15,0.45-0.15c0.18,0,0.33,0.05,0.45,0.15
			c0.12,0.1,0.19,0.28,0.19,0.54c0,0.25-0.06,0.42-0.19,0.53s-0.27,0.16-0.45,0.16c-0.18,0-0.33-0.05-0.45-0.16
			S71.63,73.45,71.63,73.2z"/>
		<path class="st1" d="M78.82,73.78h-1.04v-4c0-0.13,0-0.27,0-0.41c0-0.14,0.01-0.28,0.01-0.42c0.01-0.14,0.01-0.27,0.02-0.39
			c-0.06,0.06-0.12,0.13-0.21,0.21c-0.08,0.08-0.17,0.16-0.26,0.25l-0.66,0.58l-0.52-0.7l1.79-1.54h0.87V73.78z"/>
		<path class="st1" d="M82.55,71c-0.2-0.1-0.38-0.16-0.51-0.19c-0.14-0.03-0.27-0.05-0.39-0.05c-0.15,0-0.32,0.05-0.49,0.15
			s-0.32,0.23-0.46,0.38v-0.9c0.14-0.16,0.29-0.27,0.46-0.36c0.17-0.08,0.35-0.12,0.56-0.12c0.16,0,0.32,0.02,0.48,0.05
			c0.16,0.04,0.37,0.11,0.63,0.23c0.2,0.1,0.37,0.16,0.51,0.19c0.14,0.03,0.27,0.05,0.39,0.05c0.16,0,0.32-0.05,0.49-0.15
			c0.17-0.1,0.32-0.23,0.45-0.38v0.89c-0.13,0.16-0.28,0.28-0.46,0.36s-0.36,0.13-0.56,0.13c-0.16,0-0.32-0.02-0.49-0.06
			S82.8,71.12,82.55,71z"/>
		<path class="st1" d="M89.47,73.78h-4.05v-0.84l1.51-1.66c0.3-0.33,0.54-0.61,0.73-0.85c0.19-0.24,0.33-0.46,0.42-0.66
			s0.14-0.43,0.14-0.67c0-0.29-0.08-0.51-0.23-0.66c-0.16-0.15-0.36-0.22-0.61-0.22c-0.25,0-0.48,0.06-0.7,0.17
			c-0.22,0.11-0.44,0.27-0.67,0.47l-0.57-0.75c0.17-0.16,0.34-0.3,0.53-0.43s0.4-0.23,0.64-0.31c0.24-0.08,0.51-0.12,0.83-0.12
			c0.38,0,0.71,0.07,0.98,0.22c0.27,0.15,0.49,0.35,0.63,0.61c0.15,0.26,0.22,0.56,0.22,0.9c0,0.35-0.06,0.67-0.19,0.96
			c-0.13,0.29-0.31,0.58-0.55,0.87c-0.24,0.29-0.53,0.6-0.86,0.94l-0.94,0.98v0.05h2.74V73.78z"/>
		<path class="st1" d="M95.87,70.55c0,0.5-0.06,0.95-0.17,1.35c-0.11,0.41-0.29,0.75-0.51,1.05c-0.23,0.29-0.52,0.52-0.88,0.67
			l1.43,1.68h-1.41l-1.1-1.44c-0.02,0-0.05,0-0.07,0s-0.05,0-0.07,0c-0.48,0-0.89-0.08-1.24-0.24c-0.35-0.16-0.64-0.38-0.87-0.68
			c-0.23-0.29-0.4-0.64-0.51-1.05c-0.11-0.41-0.17-0.86-0.17-1.36c0-0.67,0.1-1.25,0.3-1.74c0.2-0.49,0.51-0.87,0.92-1.15
			c0.41-0.27,0.94-0.41,1.57-0.41c0.62,0,1.14,0.14,1.55,0.41c0.41,0.27,0.72,0.66,0.92,1.15S95.87,69.89,95.87,70.55z M91.41,70.55
			c0,0.49,0.06,0.9,0.18,1.25c0.12,0.35,0.3,0.62,0.55,0.8s0.56,0.28,0.94,0.28c0.39,0,0.71-0.09,0.95-0.28
			c0.24-0.19,0.42-0.45,0.54-0.8c0.12-0.35,0.17-0.76,0.17-1.25c0-0.73-0.13-1.3-0.39-1.71s-0.68-0.62-1.27-0.62
			c-0.39,0-0.7,0.09-0.95,0.28s-0.43,0.45-0.55,0.8C91.47,69.65,91.41,70.07,91.41,70.55z"/>
	</g>
</g>
<text transform="matrix(0.9213 0 0 1 38.2477 16.2973)"><tspan x="0" y="0" class="st1 st2 st3">- 케어톡 엣지 운영</tspan><tspan x="0" y="8" class="st1 st2 st3">- 병원 분양몰 200호점 돌파</tspan><tspan x="0" y="16" class="st1 st2 st3">- 회원수 20,000명 돌파 </tspan><tspan x="0" y="24" class="st1 st2 st3">- 영양 처방 MDS 기능의학 제휴</tspan></text>
<circle class="st1" cx="157.31" cy="51.85" r="5.4"/>
<g>
	<g>
		<path class="st1" d="M139.61,73.78h-4.05v-0.84l1.51-1.66c0.3-0.33,0.54-0.61,0.73-0.85c0.19-0.24,0.33-0.46,0.42-0.66
			s0.14-0.43,0.14-0.67c0-0.29-0.08-0.51-0.23-0.66c-0.16-0.15-0.36-0.22-0.61-0.22c-0.25,0-0.48,0.06-0.7,0.17
			c-0.22,0.11-0.44,0.27-0.67,0.47l-0.57-0.75c0.17-0.16,0.34-0.3,0.53-0.43s0.4-0.23,0.64-0.31c0.24-0.08,0.51-0.12,0.83-0.12
			c0.38,0,0.71,0.07,0.98,0.22c0.27,0.15,0.49,0.35,0.63,0.61c0.15,0.26,0.22,0.56,0.22,0.9c0,0.35-0.06,0.67-0.19,0.96
			c-0.13,0.29-0.31,0.58-0.55,0.87c-0.24,0.29-0.53,0.6-0.86,0.94l-0.94,0.98v0.05h2.74V73.78z"/>
		<path class="st1" d="M144.34,70.56c0,0.52-0.04,0.98-0.11,1.39c-0.07,0.41-0.19,0.75-0.35,1.04c-0.16,0.29-0.37,0.5-0.63,0.65
			c-0.26,0.15-0.57,0.22-0.94,0.22c-0.46,0-0.85-0.13-1.14-0.4c-0.3-0.26-0.52-0.64-0.66-1.13c-0.14-0.49-0.22-1.08-0.22-1.77
			c0-0.7,0.07-1.29,0.2-1.78c0.13-0.49,0.35-0.87,0.64-1.13c0.3-0.26,0.69-0.4,1.18-0.4c0.46,0,0.85,0.13,1.14,0.39
			c0.3,0.26,0.52,0.64,0.67,1.13S144.34,69.87,144.34,70.56z M141.34,70.56c0,0.52,0.03,0.96,0.09,1.31
			c0.06,0.35,0.16,0.61,0.3,0.79c0.14,0.18,0.33,0.27,0.58,0.27s0.44-0.09,0.58-0.26s0.24-0.44,0.31-0.79s0.1-0.79,0.1-1.32
			s-0.03-0.97-0.1-1.32c-0.06-0.35-0.17-0.61-0.31-0.79c-0.14-0.18-0.33-0.27-0.58-0.27s-0.44,0.09-0.58,0.27
			c-0.14,0.18-0.24,0.44-0.3,0.79C141.37,69.59,141.34,70.03,141.34,70.56z"/>
		<path class="st1" d="M149.1,73.78h-4.05v-0.84l1.51-1.66c0.3-0.33,0.54-0.61,0.73-0.85c0.19-0.24,0.33-0.46,0.42-0.66
			s0.14-0.43,0.14-0.67c0-0.29-0.08-0.51-0.23-0.66c-0.16-0.15-0.36-0.22-0.61-0.22c-0.25,0-0.48,0.06-0.7,0.17
			c-0.22,0.11-0.44,0.27-0.67,0.47l-0.57-0.75c0.17-0.16,0.34-0.3,0.53-0.43s0.4-0.23,0.64-0.31c0.24-0.08,0.51-0.12,0.83-0.12
			c0.38,0,0.71,0.07,0.98,0.22c0.27,0.15,0.49,0.35,0.63,0.61c0.15,0.26,0.22,0.56,0.22,0.9c0,0.35-0.06,0.67-0.19,0.96
			c-0.13,0.29-0.31,0.58-0.55,0.87c-0.24,0.29-0.53,0.6-0.86,0.94l-0.94,0.98v0.05h2.74V73.78z"/>
		<path class="st1" d="M153.61,68.82c0,0.29-0.05,0.54-0.16,0.76c-0.11,0.22-0.26,0.39-0.44,0.53c-0.19,0.13-0.41,0.23-0.65,0.29
			v0.03c0.48,0.06,0.83,0.22,1.08,0.48s0.36,0.6,0.36,1.03c0,0.37-0.08,0.71-0.25,1s-0.42,0.52-0.77,0.69s-0.79,0.25-1.33,0.25
			c-0.32,0-0.62-0.03-0.9-0.09c-0.28-0.06-0.54-0.15-0.78-0.27v-1c0.25,0.14,0.51,0.24,0.8,0.31c0.28,0.07,0.55,0.11,0.8,0.11
			c0.48,0,0.82-0.09,1.02-0.28c0.2-0.19,0.3-0.45,0.3-0.79c0-0.22-0.05-0.39-0.15-0.53s-0.26-0.24-0.48-0.31
			c-0.22-0.07-0.52-0.1-0.88-0.1h-0.5v-0.91h0.51c0.35,0,0.62-0.04,0.83-0.13c0.2-0.08,0.35-0.2,0.43-0.35
			c0.09-0.15,0.13-0.32,0.13-0.52c0-0.26-0.08-0.46-0.23-0.6c-0.15-0.14-0.39-0.22-0.7-0.22c-0.2,0-0.38,0.02-0.54,0.07
			c-0.16,0.05-0.31,0.11-0.44,0.18c-0.13,0.08-0.26,0.15-0.37,0.24l-0.5-0.78c0.22-0.18,0.49-0.33,0.8-0.46
			c0.31-0.13,0.68-0.19,1.1-0.19c0.61,0,1.09,0.14,1.42,0.42C153.44,67.96,153.61,68.34,153.61,68.82z"/>
		<path class="st1" d="M154.7,73.2c0-0.26,0.06-0.44,0.18-0.54c0.12-0.1,0.27-0.15,0.45-0.15c0.18,0,0.33,0.05,0.45,0.15
			c0.12,0.1,0.19,0.28,0.19,0.54c0,0.25-0.06,0.42-0.19,0.53s-0.27,0.16-0.45,0.16c-0.18,0-0.33-0.05-0.45-0.16
			S154.7,73.45,154.7,73.2z"/>
		<path class="st1" d="M162.82,68.82c0,0.29-0.05,0.54-0.16,0.76c-0.11,0.22-0.26,0.39-0.44,0.53c-0.19,0.13-0.41,0.23-0.65,0.29
			v0.03c0.48,0.06,0.83,0.22,1.08,0.48s0.36,0.6,0.36,1.03c0,0.37-0.08,0.71-0.25,1s-0.42,0.52-0.77,0.69s-0.79,0.25-1.33,0.25
			c-0.32,0-0.62-0.03-0.9-0.09c-0.28-0.06-0.54-0.15-0.78-0.27v-1c0.25,0.14,0.51,0.24,0.8,0.31c0.28,0.07,0.55,0.11,0.8,0.11
			c0.48,0,0.82-0.09,1.02-0.28c0.2-0.19,0.3-0.45,0.3-0.79c0-0.22-0.05-0.39-0.15-0.53s-0.26-0.24-0.48-0.31
			c-0.22-0.07-0.52-0.1-0.88-0.1h-0.5v-0.91h0.51c0.35,0,0.62-0.04,0.83-0.13c0.2-0.08,0.35-0.2,0.43-0.35
			c0.09-0.15,0.13-0.32,0.13-0.52c0-0.26-0.08-0.46-0.23-0.6c-0.15-0.14-0.39-0.22-0.7-0.22c-0.2,0-0.38,0.02-0.54,0.07
			c-0.16,0.05-0.31,0.11-0.44,0.18c-0.13,0.08-0.26,0.15-0.37,0.24l-0.5-0.78c0.22-0.18,0.49-0.33,0.8-0.46
			c0.31-0.13,0.68-0.19,1.1-0.19c0.61,0,1.09,0.14,1.42,0.42C162.66,67.96,162.82,68.34,162.82,68.82z"/>
		<path class="st1" d="M165.62,71c-0.2-0.1-0.38-0.16-0.51-0.19c-0.14-0.03-0.27-0.05-0.39-0.05c-0.15,0-0.32,0.05-0.49,0.15
			s-0.32,0.23-0.46,0.38v-0.9c0.14-0.16,0.29-0.27,0.46-0.36c0.17-0.08,0.35-0.12,0.56-0.12c0.16,0,0.32,0.02,0.48,0.05
			c0.16,0.04,0.37,0.11,0.63,0.23c0.2,0.1,0.37,0.16,0.51,0.19c0.14,0.03,0.27,0.05,0.39,0.05c0.16,0,0.32-0.05,0.49-0.15
			c0.17-0.1,0.32-0.23,0.45-0.38v0.89c-0.13,0.16-0.28,0.28-0.46,0.36s-0.36,0.13-0.56,0.13c-0.16,0-0.32-0.02-0.49-0.06
			S165.87,71.12,165.62,71z"/>
		<path class="st1" d="M172.72,72.4h-0.77v1.38h-1.03V72.4h-2.64v-0.85l2.66-4.22h1v4.14h0.77V72.4z M170.92,70.03
			c0-0.13,0-0.26,0-0.39c0-0.13,0.01-0.27,0.01-0.4c0.01-0.13,0.01-0.25,0.02-0.36c0.01-0.11,0.01-0.19,0.02-0.25h-0.03
			c-0.05,0.11-0.1,0.23-0.16,0.36s-0.12,0.24-0.19,0.35l-1.34,2.14h1.68V70.03z"/>
		<path class="st1" d="M178.93,70.55c0,0.5-0.06,0.95-0.17,1.35c-0.11,0.41-0.29,0.75-0.51,1.05c-0.23,0.29-0.52,0.52-0.88,0.67
			l1.43,1.68h-1.41l-1.1-1.44c-0.02,0-0.05,0-0.07,0s-0.05,0-0.07,0c-0.48,0-0.89-0.08-1.24-0.24c-0.35-0.16-0.64-0.38-0.87-0.68
			c-0.23-0.29-0.4-0.64-0.51-1.05c-0.11-0.41-0.17-0.86-0.17-1.36c0-0.67,0.1-1.25,0.3-1.74c0.2-0.49,0.51-0.87,0.92-1.15
			c0.41-0.27,0.94-0.41,1.57-0.41c0.62,0,1.14,0.14,1.55,0.41c0.41,0.27,0.72,0.66,0.92,1.15S178.93,69.89,178.93,70.55z
			 M174.48,70.55c0,0.49,0.06,0.9,0.18,1.25c0.12,0.35,0.3,0.62,0.55,0.8s0.56,0.28,0.94,0.28c0.39,0,0.71-0.09,0.95-0.28
			c0.24-0.19,0.42-0.45,0.54-0.8c0.12-0.35,0.17-0.76,0.17-1.25c0-0.73-0.13-1.3-0.39-1.71s-0.68-0.62-1.27-0.62
			c-0.39,0-0.7,0.09-0.95,0.28s-0.43,0.45-0.55,0.8C174.54,69.65,174.48,70.07,174.48,70.55z"/>
	</g>
</g>
<text transform="matrix(0.9213 0 0 1 130.3431 40.2973)" class="st1 st2 st3">- 소분 건기식 사업 승인</text>
<circle class="st1" cx="230.27" cy="51.85" r="5.4"/>
<g>
	<g>
		<path class="st1" d="M212.57,73.78h-4.05v-0.84l1.51-1.66c0.3-0.33,0.54-0.61,0.73-0.85c0.19-0.24,0.33-0.46,0.42-0.66
			c0.09-0.2,0.14-0.43,0.14-0.67c0-0.29-0.08-0.51-0.23-0.66c-0.16-0.15-0.36-0.22-0.61-0.22c-0.25,0-0.48,0.06-0.7,0.17
			c-0.21,0.11-0.44,0.27-0.67,0.47l-0.57-0.75c0.17-0.16,0.34-0.3,0.53-0.43c0.19-0.13,0.4-0.23,0.64-0.31s0.51-0.12,0.83-0.12
			c0.38,0,0.71,0.07,0.98,0.22c0.27,0.15,0.49,0.35,0.63,0.61s0.22,0.56,0.22,0.9c0,0.35-0.06,0.67-0.19,0.96
			c-0.13,0.29-0.31,0.58-0.55,0.87c-0.24,0.29-0.53,0.6-0.86,0.94l-0.94,0.98v0.05h2.74V73.78z"/>
		<path class="st1" d="M217.3,70.56c0,0.52-0.04,0.98-0.11,1.39c-0.07,0.41-0.19,0.75-0.35,1.04c-0.16,0.29-0.37,0.5-0.63,0.65
			s-0.57,0.22-0.94,0.22c-0.46,0-0.85-0.13-1.14-0.4c-0.3-0.26-0.52-0.64-0.66-1.13s-0.22-1.08-0.22-1.77c0-0.7,0.07-1.29,0.2-1.78
			c0.13-0.49,0.35-0.87,0.64-1.13s0.69-0.4,1.18-0.4c0.46,0,0.85,0.13,1.14,0.39c0.3,0.26,0.52,0.64,0.67,1.13
			S217.3,69.87,217.3,70.56z M214.3,70.56c0,0.52,0.03,0.96,0.09,1.31c0.06,0.35,0.16,0.61,0.3,0.79c0.14,0.18,0.33,0.27,0.58,0.27
			s0.44-0.09,0.58-0.26c0.14-0.17,0.24-0.44,0.31-0.79s0.1-0.79,0.1-1.32s-0.03-0.97-0.1-1.32c-0.06-0.35-0.17-0.61-0.31-0.79
			c-0.14-0.18-0.33-0.27-0.58-0.27s-0.44,0.09-0.58,0.27c-0.14,0.18-0.24,0.44-0.3,0.79C214.33,69.59,214.3,70.03,214.3,70.56z"/>
		<path class="st1" d="M222.06,73.78H218v-0.84l1.51-1.66c0.3-0.33,0.54-0.61,0.73-0.85c0.19-0.24,0.33-0.46,0.42-0.66
			c0.09-0.2,0.14-0.43,0.14-0.67c0-0.29-0.08-0.51-0.23-0.66c-0.16-0.15-0.36-0.22-0.61-0.22c-0.25,0-0.48,0.06-0.7,0.17
			c-0.22,0.11-0.44,0.27-0.67,0.47l-0.57-0.75c0.17-0.16,0.34-0.3,0.53-0.43c0.19-0.13,0.4-0.23,0.64-0.31
			c0.24-0.08,0.51-0.12,0.83-0.12c0.38,0,0.71,0.07,0.98,0.22s0.49,0.35,0.63,0.61c0.15,0.26,0.22,0.56,0.22,0.9
			c0,0.35-0.06,0.67-0.19,0.96c-0.13,0.29-0.31,0.58-0.55,0.87c-0.24,0.29-0.53,0.6-0.86,0.94l-0.94,0.98v0.05h2.74V73.78z"/>
		<path class="st1" d="M226.98,72.4h-0.77v1.38h-1.03V72.4h-2.64v-0.85l2.66-4.22h1v4.14h0.77V72.4z M225.18,70.03
			c0-0.13,0-0.26,0-0.39c0-0.13,0.01-0.27,0.01-0.4c0.01-0.13,0.01-0.25,0.02-0.36s0.01-0.19,0.02-0.25h-0.03
			c-0.05,0.11-0.1,0.23-0.16,0.36c-0.06,0.12-0.12,0.24-0.2,0.35l-1.34,2.14h1.68V70.03z"/>
		<path class="st1" d="M227.65,73.2c0-0.26,0.06-0.44,0.18-0.54c0.12-0.1,0.27-0.15,0.45-0.15s0.33,0.05,0.45,0.15
			c0.12,0.1,0.19,0.28,0.19,0.54c0,0.25-0.06,0.42-0.19,0.53c-0.12,0.11-0.28,0.16-0.45,0.16s-0.33-0.05-0.45-0.16
			C227.71,73.62,227.65,73.45,227.65,73.2z"/>
		<path class="st1" d="M234.84,73.78h-1.04v-4c0-0.13,0-0.27,0-0.41c0-0.14,0.01-0.28,0.01-0.42c0.01-0.14,0.01-0.27,0.02-0.39
			c-0.05,0.06-0.12,0.13-0.21,0.21c-0.08,0.08-0.17,0.16-0.26,0.25l-0.66,0.58l-0.52-0.7l1.79-1.54h0.87V73.78z"/>
		<path class="st1" d="M238.57,71c-0.21-0.1-0.38-0.16-0.51-0.19c-0.14-0.03-0.27-0.05-0.39-0.05c-0.15,0-0.32,0.05-0.49,0.15
			c-0.17,0.1-0.32,0.23-0.46,0.38v-0.9c0.14-0.16,0.29-0.27,0.46-0.36c0.17-0.08,0.35-0.12,0.56-0.12c0.16,0,0.32,0.02,0.48,0.05
			c0.16,0.04,0.37,0.11,0.63,0.23c0.2,0.1,0.37,0.16,0.51,0.19c0.14,0.03,0.27,0.05,0.39,0.05c0.16,0,0.32-0.05,0.49-0.15
			c0.17-0.1,0.32-0.23,0.45-0.38v0.89c-0.13,0.16-0.28,0.28-0.46,0.36c-0.17,0.08-0.36,0.13-0.55,0.13c-0.16,0-0.32-0.02-0.49-0.06
			S238.83,71.12,238.57,71z"/>
		<path class="st1" d="M245.5,73.78h-4.05v-0.84l1.51-1.66c0.3-0.33,0.54-0.61,0.73-0.85c0.19-0.24,0.33-0.46,0.42-0.66
			c0.09-0.2,0.14-0.43,0.14-0.67c0-0.29-0.08-0.51-0.23-0.66c-0.16-0.15-0.36-0.22-0.61-0.22c-0.25,0-0.48,0.06-0.7,0.17
			c-0.21,0.11-0.44,0.27-0.67,0.47l-0.57-0.75c0.17-0.16,0.34-0.3,0.53-0.43c0.19-0.13,0.4-0.23,0.64-0.31s0.51-0.12,0.83-0.12
			c0.38,0,0.71,0.07,0.98,0.22c0.27,0.15,0.49,0.35,0.63,0.61s0.22,0.56,0.22,0.9c0,0.35-0.06,0.67-0.19,0.96
			c-0.13,0.29-0.31,0.58-0.55,0.87c-0.24,0.29-0.53,0.6-0.86,0.94l-0.94,0.98v0.05h2.74V73.78z"/>
		<path class="st1" d="M251.89,70.55c0,0.5-0.06,0.95-0.17,1.35c-0.11,0.41-0.29,0.75-0.51,1.05c-0.23,0.29-0.52,0.52-0.88,0.67
			l1.43,1.68h-1.41l-1.1-1.44c-0.02,0-0.05,0-0.07,0c-0.02,0-0.05,0-0.07,0c-0.48,0-0.89-0.08-1.24-0.24
			c-0.35-0.16-0.64-0.38-0.87-0.68c-0.23-0.29-0.4-0.64-0.51-1.05c-0.11-0.41-0.17-0.86-0.17-1.36c0-0.67,0.1-1.25,0.3-1.74
			c0.2-0.49,0.51-0.87,0.92-1.15c0.41-0.27,0.94-0.41,1.57-0.41c0.62,0,1.14,0.14,1.55,0.41c0.41,0.27,0.72,0.66,0.92,1.15
			C251.79,69.31,251.89,69.89,251.89,70.55z M247.44,70.55c0,0.49,0.06,0.9,0.18,1.25c0.12,0.35,0.3,0.62,0.55,0.8
			s0.56,0.28,0.94,0.28c0.39,0,0.71-0.09,0.95-0.28c0.24-0.19,0.42-0.45,0.54-0.8c0.12-0.35,0.17-0.76,0.17-1.25
			c0-0.73-0.13-1.3-0.39-1.71s-0.68-0.62-1.27-0.62c-0.39,0-0.7,0.09-0.95,0.28s-0.43,0.45-0.55,0.8
			C247.5,69.65,247.44,70.07,247.44,70.55z"/>
	</g>
</g>
<text transform="matrix(0.9213 0 0 1 204.2595 24.2974)"><tspan x="0" y="0" class="st1 st2 st3">- 이커머스 플랫폼 개발</tspan><tspan x="0" y="8" class="st1 st2 st3">- 브랜딩 및 판매계획</tspan><tspan x="0" y="16" class="st1 st2 st3">- 자사몰 개발</tspan></text>
<circle class="st1" cx="303.24" cy="51.67" r="5.4"/>
<g>
	<g>
		<path class="st1" d="M290.29,73.78h-4.05v-0.84l1.51-1.66c0.3-0.33,0.54-0.61,0.73-0.85c0.19-0.24,0.33-0.46,0.42-0.66
			c0.09-0.2,0.14-0.43,0.14-0.67c0-0.29-0.08-0.51-0.23-0.66c-0.16-0.15-0.36-0.22-0.61-0.22c-0.25,0-0.48,0.06-0.7,0.17
			c-0.21,0.11-0.44,0.27-0.67,0.47l-0.57-0.75c0.17-0.16,0.34-0.3,0.53-0.43c0.19-0.13,0.4-0.23,0.64-0.31s0.51-0.12,0.83-0.12
			c0.38,0,0.71,0.07,0.98,0.22c0.27,0.15,0.49,0.35,0.63,0.61s0.22,0.56,0.22,0.9c0,0.35-0.06,0.67-0.19,0.96
			c-0.13,0.29-0.31,0.58-0.55,0.87c-0.24,0.29-0.53,0.6-0.86,0.94l-0.94,0.98v0.05h2.74V73.78z"/>
		<path class="st1" d="M295.01,70.56c0,0.52-0.04,0.98-0.11,1.39c-0.07,0.41-0.19,0.75-0.35,1.04c-0.16,0.29-0.37,0.5-0.63,0.65
			s-0.57,0.22-0.94,0.22c-0.46,0-0.85-0.13-1.14-0.4c-0.3-0.26-0.52-0.64-0.66-1.13s-0.22-1.08-0.22-1.77c0-0.7,0.07-1.29,0.2-1.78
			c0.13-0.49,0.35-0.87,0.64-1.13s0.69-0.4,1.18-0.4c0.46,0,0.85,0.13,1.14,0.39c0.3,0.26,0.52,0.64,0.67,1.13
			S295.01,69.87,295.01,70.56z M292.01,70.56c0,0.52,0.03,0.96,0.09,1.31c0.06,0.35,0.16,0.61,0.3,0.79
			c0.14,0.18,0.33,0.27,0.58,0.27s0.44-0.09,0.58-0.26c0.14-0.17,0.24-0.44,0.31-0.79s0.1-0.79,0.1-1.32s-0.03-0.97-0.1-1.32
			c-0.06-0.35-0.17-0.61-0.31-0.79c-0.14-0.18-0.33-0.27-0.58-0.27s-0.44,0.09-0.58,0.27c-0.14,0.18-0.24,0.44-0.3,0.79
			C292.04,69.59,292.01,70.03,292.01,70.56z"/>
		<path class="st1" d="M299.77,73.78h-4.05v-0.84l1.51-1.66c0.3-0.33,0.54-0.61,0.73-0.85c0.19-0.24,0.33-0.46,0.42-0.66
			c0.09-0.2,0.14-0.43,0.14-0.67c0-0.29-0.08-0.51-0.23-0.66c-0.16-0.15-0.36-0.22-0.61-0.22c-0.25,0-0.48,0.06-0.7,0.17
			c-0.22,0.11-0.44,0.27-0.67,0.47l-0.57-0.75c0.17-0.16,0.34-0.3,0.53-0.43c0.19-0.13,0.4-0.23,0.64-0.31
			c0.24-0.08,0.51-0.12,0.83-0.12c0.38,0,0.71,0.07,0.98,0.22s0.49,0.35,0.63,0.61c0.15,0.26,0.22,0.56,0.22,0.9
			c0,0.35-0.06,0.67-0.19,0.96c-0.13,0.29-0.31,0.58-0.55,0.87c-0.24,0.29-0.53,0.6-0.86,0.94l-0.94,0.98v0.05h2.74V73.78z"/>
		<path class="st1" d="M304.7,72.4h-0.77v1.38h-1.03V72.4h-2.64v-0.85l2.66-4.22h1v4.14h0.77V72.4z M302.9,70.03
			c0-0.13,0-0.26,0-0.39c0-0.13,0.01-0.27,0.01-0.4c0.01-0.13,0.01-0.25,0.02-0.36s0.01-0.19,0.02-0.25h-0.03
			c-0.05,0.11-0.1,0.23-0.16,0.36c-0.06,0.12-0.12,0.24-0.2,0.35l-1.34,2.14h1.68V70.03z"/>
		<path class="st1" d="M305.37,73.2c0-0.26,0.06-0.44,0.18-0.54c0.12-0.1,0.27-0.15,0.45-0.15s0.33,0.05,0.45,0.15
			c0.12,0.1,0.19,0.28,0.19,0.54c0,0.25-0.06,0.42-0.19,0.53c-0.12,0.11-0.28,0.16-0.45,0.16s-0.33-0.05-0.45-0.16
			C305.43,73.62,305.37,73.45,305.37,73.2z"/>
		<path class="st1" d="M313.5,68.82c0,0.29-0.05,0.54-0.16,0.76c-0.11,0.22-0.26,0.39-0.44,0.53c-0.19,0.13-0.41,0.23-0.66,0.29
			v0.03c0.48,0.06,0.83,0.22,1.08,0.48s0.36,0.6,0.36,1.03c0,0.37-0.08,0.71-0.25,1s-0.42,0.52-0.77,0.69s-0.79,0.25-1.33,0.25
			c-0.32,0-0.62-0.03-0.9-0.09c-0.28-0.06-0.54-0.15-0.78-0.27v-1c0.25,0.14,0.51,0.24,0.8,0.31c0.28,0.07,0.55,0.11,0.8,0.11
			c0.48,0,0.82-0.09,1.02-0.28s0.3-0.45,0.3-0.79c0-0.22-0.05-0.39-0.15-0.53s-0.26-0.24-0.49-0.31s-0.52-0.1-0.88-0.1h-0.5v-0.91
			h0.51c0.35,0,0.62-0.04,0.83-0.13c0.2-0.08,0.34-0.2,0.43-0.35s0.13-0.32,0.13-0.52c0-0.26-0.08-0.46-0.23-0.6
			c-0.15-0.14-0.39-0.22-0.7-0.22c-0.2,0-0.38,0.02-0.54,0.07c-0.16,0.05-0.31,0.11-0.44,0.18c-0.13,0.08-0.26,0.15-0.37,0.24
			l-0.5-0.78c0.22-0.18,0.49-0.33,0.8-0.46c0.31-0.13,0.68-0.19,1.1-0.19c0.61,0,1.09,0.14,1.42,0.42
			C313.33,67.96,313.5,68.34,313.5,68.82z"/>
		<path class="st1" d="M320.12,70.55c0,0.5-0.06,0.95-0.17,1.35c-0.11,0.41-0.29,0.75-0.51,1.05s-0.52,0.52-0.88,0.67l1.43,1.68
			h-1.41l-1.1-1.44c-0.02,0-0.05,0-0.07,0c-0.03,0-0.05,0-0.07,0c-0.48,0-0.89-0.08-1.24-0.24c-0.35-0.16-0.64-0.38-0.87-0.68
			c-0.23-0.29-0.4-0.64-0.51-1.05c-0.11-0.41-0.17-0.86-0.17-1.36c0-0.67,0.1-1.25,0.3-1.74c0.2-0.49,0.51-0.87,0.92-1.15
			c0.41-0.27,0.94-0.41,1.57-0.41c0.62,0,1.14,0.14,1.55,0.41c0.41,0.27,0.72,0.66,0.92,1.15
			C320.02,69.31,320.12,69.89,320.12,70.55z M315.67,70.55c0,0.49,0.06,0.9,0.18,1.25c0.12,0.35,0.3,0.62,0.55,0.8
			s0.56,0.28,0.94,0.28c0.39,0,0.71-0.09,0.95-0.28s0.42-0.45,0.54-0.8c0.12-0.35,0.17-0.76,0.17-1.25c0-0.73-0.13-1.3-0.39-1.71
			s-0.68-0.62-1.27-0.62c-0.39,0-0.7,0.09-0.95,0.28s-0.43,0.45-0.55,0.8C315.73,69.65,315.67,70.07,315.67,70.55z"/>
	</g>
</g>
<text transform="matrix(0.9213 0 0 1 280.2334 32.297)"><tspan x="0" y="0" class="st1 st2 st3">- 건강기능식품 제휴</tspan><tspan x="0" y="8" class="st1 st2 st3">- 자사몰 런칭</tspan></text>
<circle class="st1" cx="303.24" cy="161.27" r="5.4"/>
<g>
	<g>
		<path class="st1" d="M290.29,183.19h-4.05v-0.84l1.51-1.66c0.3-0.33,0.54-0.61,0.73-0.85c0.19-0.24,0.33-0.46,0.42-0.66
			c0.09-0.2,0.14-0.43,0.14-0.67c0-0.29-0.08-0.51-0.23-0.66c-0.16-0.15-0.36-0.22-0.61-0.22c-0.25,0-0.48,0.06-0.7,0.17
			c-0.21,0.11-0.44,0.27-0.67,0.47l-0.57-0.75c0.17-0.16,0.34-0.3,0.53-0.43c0.19-0.13,0.4-0.23,0.64-0.31s0.51-0.12,0.83-0.12
			c0.38,0,0.71,0.07,0.98,0.22c0.27,0.15,0.49,0.35,0.63,0.61s0.22,0.56,0.22,0.9c0,0.35-0.06,0.67-0.19,0.96
			c-0.13,0.29-0.31,0.58-0.55,0.87s-0.53,0.6-0.86,0.94l-0.94,0.98v0.05h2.74V183.19z"/>
		<path class="st1" d="M295.01,179.98c0,0.52-0.04,0.98-0.11,1.39c-0.07,0.41-0.19,0.75-0.35,1.04s-0.37,0.5-0.63,0.65
			c-0.26,0.15-0.57,0.22-0.94,0.22c-0.46,0-0.85-0.13-1.14-0.4c-0.3-0.26-0.52-0.64-0.66-1.13s-0.22-1.08-0.22-1.77
			c0-0.7,0.07-1.29,0.2-1.78c0.13-0.49,0.35-0.87,0.64-1.13c0.3-0.26,0.69-0.4,1.18-0.4c0.46,0,0.85,0.13,1.14,0.39
			c0.3,0.26,0.52,0.64,0.67,1.13S295.01,179.28,295.01,179.98z M292.01,179.98c0,0.52,0.03,0.96,0.09,1.31s0.16,0.62,0.3,0.79
			s0.33,0.27,0.58,0.27s0.44-0.09,0.58-0.26c0.14-0.17,0.24-0.44,0.31-0.79c0.06-0.35,0.1-0.79,0.1-1.32c0-0.53-0.03-0.97-0.1-1.32
			s-0.17-0.62-0.31-0.79c-0.14-0.18-0.33-0.27-0.58-0.27s-0.44,0.09-0.58,0.27s-0.24,0.44-0.3,0.79
			C292.04,179,292.01,179.44,292.01,179.98z"/>
		<path class="st1" d="M299.77,183.19h-4.05v-0.84l1.51-1.66c0.3-0.33,0.54-0.61,0.73-0.85c0.19-0.24,0.33-0.46,0.42-0.66
			c0.09-0.2,0.14-0.43,0.14-0.67c0-0.29-0.08-0.51-0.23-0.66c-0.16-0.15-0.36-0.22-0.61-0.22c-0.25,0-0.48,0.06-0.7,0.17
			c-0.22,0.11-0.44,0.27-0.67,0.47l-0.57-0.75c0.17-0.16,0.34-0.3,0.53-0.43c0.19-0.13,0.4-0.23,0.64-0.31
			c0.24-0.08,0.51-0.12,0.83-0.12c0.38,0,0.71,0.07,0.98,0.22c0.27,0.15,0.49,0.35,0.63,0.61c0.15,0.26,0.22,0.56,0.22,0.9
			c0,0.35-0.06,0.67-0.19,0.96c-0.13,0.29-0.31,0.58-0.55,0.87c-0.24,0.29-0.53,0.6-0.86,0.94l-0.94,0.98v0.05h2.74V183.19z"/>
		<path class="st1" d="M304.7,181.81h-0.77v1.38h-1.03v-1.38h-2.64v-0.85l2.66-4.22h1v4.14h0.77V181.81z M302.9,179.45
			c0-0.13,0-0.26,0-0.39c0-0.13,0.01-0.27,0.01-0.4c0.01-0.13,0.01-0.25,0.02-0.36c0.01-0.11,0.01-0.19,0.02-0.25h-0.03
			c-0.05,0.11-0.1,0.23-0.16,0.36c-0.06,0.12-0.12,0.24-0.2,0.35l-1.34,2.14h1.68V179.45z"/>
		<path class="st1" d="M305.37,182.61c0-0.26,0.06-0.44,0.18-0.54c0.12-0.1,0.27-0.15,0.45-0.15s0.33,0.05,0.45,0.15
			c0.12,0.1,0.19,0.28,0.19,0.54c0,0.25-0.06,0.42-0.19,0.53c-0.12,0.11-0.28,0.16-0.45,0.16s-0.33-0.05-0.45-0.16
			C305.43,183.04,305.37,182.86,305.37,182.61z"/>
		<path class="st1" d="M313.91,181.81h-0.77v1.38h-1.03v-1.38h-2.64v-0.85l2.66-4.22h1v4.14h0.77V181.81z M312.11,179.45
			c0-0.13,0-0.26,0-0.39c0-0.13,0.01-0.27,0.01-0.4c0-0.13,0.01-0.25,0.02-0.36c0-0.11,0.01-0.19,0.02-0.25h-0.03
			c-0.05,0.11-0.1,0.23-0.16,0.36c-0.06,0.12-0.12,0.24-0.19,0.35l-1.34,2.14h1.68V179.45z"/>
		<path class="st1" d="M320.12,179.97c0,0.5-0.06,0.95-0.17,1.35c-0.11,0.41-0.29,0.75-0.51,1.05s-0.52,0.52-0.88,0.67l1.43,1.68
			h-1.41l-1.1-1.44c-0.02,0-0.05,0-0.07,0c-0.03,0-0.05,0-0.07,0c-0.48,0-0.89-0.08-1.24-0.24c-0.35-0.16-0.64-0.38-0.87-0.67
			s-0.4-0.64-0.51-1.05c-0.11-0.41-0.17-0.86-0.17-1.36c0-0.67,0.1-1.25,0.3-1.74c0.2-0.49,0.51-0.87,0.92-1.15s0.94-0.41,1.57-0.41
			c0.62,0,1.14,0.14,1.55,0.41s0.72,0.66,0.92,1.15C320.02,178.72,320.12,179.3,320.12,179.97z M315.67,179.97
			c0,0.49,0.06,0.9,0.18,1.25c0.12,0.35,0.3,0.62,0.55,0.8c0.25,0.19,0.56,0.28,0.94,0.28c0.39,0,0.71-0.09,0.95-0.28
			c0.24-0.19,0.42-0.45,0.54-0.8s0.17-0.76,0.17-1.25c0-0.73-0.13-1.3-0.39-1.71s-0.68-0.62-1.27-0.62c-0.39,0-0.7,0.09-0.95,0.28
			c-0.25,0.19-0.43,0.45-0.55,0.8C315.73,179.06,315.67,179.48,315.67,179.97z"/>
	</g>
</g>
<text transform="matrix(0.9213 0 0 1 274.2334 126.7116)"><tspan x="0" y="0" class="st1 st2 st3">- CTOC Wallet 런칭</tspan><tspan x="0" y="8" class="st1 st2 st3">- 자사 PB 브랜드 개발</tspan><tspan x="0" y="16" class="st1 st2 st3">- 건강기능식품 제휴 추가</tspan><tspan x="0" y="24" class="st1 st2 st3">- 병원연동형 사업 확대</tspan></text>
<circle class="st1" cx="231.32" cy="161.27" r="5.4"/>
<g>
	<g>
		<path class="st1" d="M218.37,183.19h-4.05v-0.84l1.51-1.66c0.3-0.33,0.54-0.61,0.73-0.85c0.19-0.24,0.33-0.46,0.42-0.66
			c0.09-0.2,0.14-0.43,0.14-0.67c0-0.29-0.08-0.51-0.23-0.66c-0.16-0.15-0.36-0.22-0.61-0.22c-0.25,0-0.48,0.06-0.7,0.17
			c-0.22,0.11-0.44,0.27-0.67,0.47l-0.57-0.75c0.17-0.16,0.34-0.3,0.53-0.43c0.19-0.13,0.4-0.23,0.64-0.31
			c0.24-0.08,0.51-0.12,0.83-0.12c0.38,0,0.71,0.07,0.98,0.22c0.27,0.15,0.49,0.35,0.63,0.61c0.15,0.26,0.22,0.56,0.22,0.9
			c0,0.35-0.06,0.67-0.19,0.96c-0.13,0.29-0.31,0.58-0.55,0.87c-0.24,0.29-0.53,0.6-0.86,0.94l-0.94,0.98v0.05h2.74V183.19z"/>
		<path class="st1" d="M223.09,179.98c0,0.52-0.04,0.98-0.11,1.39c-0.07,0.41-0.19,0.75-0.35,1.04s-0.37,0.5-0.63,0.65
			c-0.26,0.15-0.57,0.22-0.94,0.22c-0.46,0-0.85-0.13-1.14-0.4s-0.52-0.64-0.66-1.13c-0.14-0.49-0.22-1.08-0.22-1.77
			c0-0.7,0.07-1.29,0.2-1.78c0.13-0.49,0.35-0.87,0.64-1.13c0.29-0.26,0.69-0.4,1.18-0.4c0.46,0,0.85,0.13,1.14,0.39
			c0.3,0.26,0.52,0.64,0.67,1.13S223.09,179.28,223.09,179.98z M220.09,179.98c0,0.52,0.03,0.96,0.09,1.31
			c0.06,0.35,0.16,0.62,0.3,0.79c0.14,0.18,0.33,0.27,0.58,0.27s0.43-0.09,0.58-0.26c0.14-0.17,0.24-0.44,0.31-0.79
			c0.06-0.35,0.1-0.79,0.1-1.32c0-0.53-0.03-0.97-0.1-1.32s-0.17-0.62-0.31-0.79c-0.14-0.18-0.33-0.27-0.58-0.27
			s-0.44,0.09-0.58,0.27c-0.14,0.18-0.24,0.44-0.3,0.79C220.12,179,220.09,179.44,220.09,179.98z"/>
		<path class="st1" d="M227.85,183.19h-4.05v-0.84l1.51-1.66c0.3-0.33,0.54-0.61,0.73-0.85c0.19-0.24,0.33-0.46,0.42-0.66
			c0.09-0.2,0.14-0.43,0.14-0.67c0-0.29-0.08-0.51-0.23-0.66c-0.16-0.15-0.36-0.22-0.61-0.22c-0.25,0-0.48,0.06-0.7,0.17
			c-0.21,0.11-0.44,0.27-0.67,0.47l-0.57-0.75c0.17-0.16,0.34-0.3,0.53-0.43c0.19-0.13,0.4-0.23,0.64-0.31s0.51-0.12,0.83-0.12
			c0.38,0,0.71,0.07,0.98,0.22c0.27,0.15,0.49,0.35,0.63,0.61s0.22,0.56,0.22,0.9c0,0.35-0.06,0.67-0.19,0.96
			c-0.13,0.29-0.31,0.58-0.55,0.87s-0.53,0.6-0.86,0.94l-0.94,0.98v0.05h2.74V183.19z"/>
		<path class="st1" d="M230.6,179.15c0.38,0,0.71,0.08,1,0.23c0.29,0.15,0.51,0.37,0.68,0.65s0.25,0.63,0.25,1.05
			c0,0.46-0.09,0.85-0.27,1.18s-0.44,0.58-0.78,0.76c-0.34,0.18-0.76,0.26-1.26,0.26c-0.31,0-0.6-0.03-0.87-0.09
			c-0.27-0.06-0.5-0.15-0.7-0.26v-1.01c0.2,0.12,0.45,0.22,0.74,0.3c0.29,0.08,0.56,0.12,0.81,0.12c0.26,0,0.49-0.04,0.68-0.12
			c0.19-0.08,0.33-0.21,0.43-0.38s0.15-0.39,0.15-0.65c0-0.36-0.1-0.63-0.31-0.82c-0.21-0.19-0.54-0.28-0.98-0.28
			c-0.16,0-0.32,0.01-0.5,0.04s-0.33,0.06-0.44,0.09l-0.45-0.27l0.22-3.19h3.12v0.99h-2.2l-0.12,1.48c0.09-0.02,0.21-0.04,0.33-0.06
			C230.24,179.16,230.4,179.15,230.6,179.15z"/>
		<path class="st1" d="M233.45,182.61c0-0.26,0.06-0.44,0.18-0.54c0.12-0.1,0.27-0.15,0.45-0.15c0.18,0,0.33,0.05,0.45,0.15
			c0.12,0.1,0.19,0.28,0.19,0.54c0,0.25-0.06,0.42-0.19,0.53c-0.12,0.11-0.27,0.16-0.45,0.16c-0.18,0-0.33-0.05-0.45-0.16
			C233.51,183.04,233.45,182.86,233.45,182.61z"/>
		<path class="st1" d="M240.64,183.19h-1.04v-4c0-0.13,0-0.27,0-0.41c0-0.14,0.01-0.28,0.01-0.42c0-0.14,0.01-0.27,0.02-0.39
			c-0.06,0.06-0.12,0.13-0.21,0.21c-0.08,0.08-0.17,0.16-0.26,0.25l-0.66,0.58l-0.52-0.7l1.79-1.54h0.87V183.19z"/>
		<path class="st1" d="M248.2,179.97c0,0.5-0.06,0.95-0.17,1.35s-0.29,0.75-0.51,1.05c-0.23,0.29-0.52,0.52-0.88,0.67l1.43,1.68
			h-1.41l-1.1-1.44c-0.02,0-0.05,0-0.07,0c-0.02,0-0.05,0-0.07,0c-0.48,0-0.89-0.08-1.24-0.24c-0.35-0.16-0.64-0.38-0.87-0.67
			c-0.23-0.29-0.4-0.64-0.51-1.05c-0.11-0.41-0.17-0.86-0.17-1.36c0-0.67,0.1-1.25,0.3-1.74s0.51-0.87,0.92-1.15
			c0.41-0.27,0.94-0.41,1.57-0.41c0.62,0,1.14,0.14,1.55,0.41s0.72,0.66,0.92,1.15C248.1,178.72,248.2,179.3,248.2,179.97z
			 M243.75,179.97c0,0.49,0.06,0.9,0.18,1.25s0.3,0.62,0.55,0.8c0.25,0.19,0.56,0.28,0.94,0.28c0.39,0,0.71-0.09,0.95-0.28
			c0.24-0.19,0.42-0.45,0.54-0.8c0.12-0.35,0.17-0.76,0.17-1.25c0-0.73-0.13-1.3-0.39-1.71s-0.68-0.62-1.27-0.62
			c-0.39,0-0.7,0.09-0.95,0.28c-0.25,0.19-0.43,0.45-0.55,0.8S243.75,179.48,243.75,179.97z"/>
	</g>
</g>
<text transform="matrix(0.9213 0 0 1 203.3114 150.2274)" class="st1 st2 st3">- PB 브랜드 개발 및 런칭</text>
<circle class="st1" cx="157.31" cy="161.27" r="5.4"/>
<g>
	<g>
		<path class="st1" d="M144.36,183.19h-4.05v-0.84l1.51-1.66c0.3-0.33,0.54-0.61,0.73-0.85c0.19-0.24,0.33-0.46,0.42-0.66
			s0.14-0.43,0.14-0.67c0-0.29-0.08-0.51-0.23-0.66c-0.16-0.15-0.36-0.22-0.61-0.22c-0.25,0-0.48,0.06-0.7,0.17
			c-0.22,0.11-0.44,0.27-0.67,0.47l-0.57-0.75c0.17-0.16,0.34-0.3,0.53-0.43s0.4-0.23,0.64-0.31c0.24-0.08,0.51-0.12,0.83-0.12
			c0.38,0,0.71,0.07,0.98,0.22c0.27,0.15,0.49,0.35,0.63,0.61c0.15,0.26,0.22,0.56,0.22,0.9c0,0.35-0.06,0.67-0.19,0.96
			c-0.13,0.29-0.31,0.58-0.55,0.87c-0.24,0.29-0.53,0.6-0.86,0.94l-0.94,0.98v0.05h2.74V183.19z"/>
		<path class="st1" d="M149.08,179.98c0,0.52-0.04,0.98-0.11,1.39c-0.07,0.41-0.19,0.75-0.35,1.04s-0.37,0.5-0.63,0.65
			c-0.26,0.15-0.57,0.22-0.94,0.22c-0.46,0-0.85-0.13-1.14-0.4c-0.3-0.26-0.52-0.64-0.66-1.13c-0.14-0.49-0.22-1.08-0.22-1.77
			c0-0.7,0.07-1.29,0.2-1.78c0.13-0.49,0.35-0.87,0.64-1.13c0.3-0.26,0.69-0.4,1.18-0.4c0.46,0,0.85,0.13,1.14,0.39
			c0.3,0.26,0.52,0.64,0.67,1.13S149.08,179.28,149.08,179.98z M146.08,179.98c0,0.52,0.03,0.96,0.09,1.31
			c0.06,0.35,0.16,0.62,0.3,0.79c0.14,0.18,0.33,0.27,0.58,0.27s0.44-0.09,0.58-0.26s0.24-0.44,0.31-0.79
			c0.06-0.35,0.1-0.79,0.1-1.32c0-0.53-0.03-0.97-0.1-1.32s-0.17-0.62-0.31-0.79s-0.33-0.27-0.58-0.27s-0.44,0.09-0.58,0.27
			c-0.14,0.18-0.24,0.44-0.3,0.79C146.11,179,146.08,179.44,146.08,179.98z"/>
		<path class="st1" d="M153.84,183.19h-4.05v-0.84l1.51-1.66c0.3-0.33,0.54-0.61,0.73-0.85c0.19-0.24,0.33-0.46,0.42-0.66
			s0.14-0.43,0.14-0.67c0-0.29-0.08-0.51-0.23-0.66c-0.16-0.15-0.36-0.22-0.61-0.22c-0.25,0-0.48,0.06-0.7,0.17
			c-0.22,0.11-0.44,0.27-0.67,0.47l-0.57-0.75c0.17-0.16,0.34-0.3,0.53-0.43s0.4-0.23,0.64-0.31c0.24-0.08,0.51-0.12,0.83-0.12
			c0.38,0,0.71,0.07,0.98,0.22c0.27,0.15,0.49,0.35,0.63,0.61c0.15,0.26,0.22,0.56,0.22,0.9c0,0.35-0.06,0.67-0.19,0.96
			c-0.13,0.29-0.31,0.58-0.55,0.87c-0.24,0.29-0.53,0.6-0.86,0.94l-0.94,0.98v0.05h2.74V183.19z"/>
		<path class="st1" d="M156.59,179.15c0.38,0,0.71,0.08,1,0.23c0.29,0.15,0.51,0.37,0.68,0.65c0.16,0.29,0.24,0.63,0.24,1.05
			c0,0.46-0.09,0.85-0.27,1.18s-0.44,0.58-0.78,0.76c-0.34,0.18-0.76,0.26-1.26,0.26c-0.31,0-0.6-0.03-0.87-0.09
			c-0.27-0.06-0.51-0.15-0.7-0.26v-1.01c0.2,0.12,0.45,0.22,0.74,0.3c0.29,0.08,0.56,0.12,0.81,0.12c0.27,0,0.49-0.04,0.68-0.12
			s0.33-0.21,0.43-0.38s0.15-0.39,0.15-0.65c0-0.36-0.1-0.63-0.31-0.82c-0.21-0.19-0.54-0.28-0.98-0.28c-0.15,0-0.32,0.01-0.5,0.04
			s-0.33,0.06-0.44,0.09l-0.45-0.27l0.22-3.19h3.12v0.99h-2.2l-0.12,1.48c0.09-0.02,0.21-0.04,0.34-0.06
			C156.23,179.16,156.39,179.15,156.59,179.15z"/>
		<path class="st1" d="M159.44,182.61c0-0.26,0.06-0.44,0.18-0.54c0.12-0.1,0.27-0.15,0.45-0.15c0.18,0,0.33,0.05,0.45,0.15
			c0.12,0.1,0.19,0.28,0.19,0.54c0,0.25-0.06,0.42-0.19,0.53c-0.12,0.11-0.27,0.16-0.45,0.16c-0.18,0-0.33-0.05-0.45-0.16
			C159.5,183.04,159.44,182.86,159.44,182.61z"/>
		<path class="st1" d="M167.8,183.19h-4.05v-0.84l1.51-1.66c0.3-0.33,0.54-0.61,0.73-0.85c0.19-0.24,0.33-0.46,0.42-0.66
			s0.14-0.43,0.14-0.67c0-0.29-0.08-0.51-0.23-0.66c-0.16-0.15-0.36-0.22-0.61-0.22c-0.25,0-0.48,0.06-0.7,0.17
			c-0.22,0.11-0.44,0.27-0.67,0.47l-0.57-0.75c0.17-0.16,0.34-0.3,0.53-0.43s0.4-0.23,0.64-0.31c0.24-0.08,0.51-0.12,0.83-0.12
			c0.38,0,0.71,0.07,0.98,0.22c0.27,0.15,0.49,0.35,0.63,0.61c0.15,0.26,0.22,0.56,0.22,0.9c0,0.35-0.06,0.67-0.19,0.96
			c-0.13,0.29-0.31,0.58-0.55,0.87c-0.24,0.29-0.53,0.6-0.86,0.94l-0.94,0.98v0.05h2.74V183.19z"/>
		<path class="st1" d="M174.19,179.97c0,0.5-0.06,0.95-0.17,1.35c-0.11,0.41-0.29,0.75-0.51,1.05c-0.23,0.29-0.52,0.52-0.88,0.67
			l1.43,1.68h-1.41l-1.1-1.44c-0.02,0-0.05,0-0.07,0s-0.05,0-0.07,0c-0.48,0-0.89-0.08-1.24-0.24s-0.64-0.38-0.87-0.67
			c-0.23-0.29-0.4-0.64-0.51-1.05c-0.11-0.41-0.17-0.86-0.17-1.36c0-0.67,0.1-1.25,0.3-1.74c0.2-0.49,0.51-0.87,0.92-1.15
			c0.41-0.27,0.94-0.41,1.57-0.41c0.62,0,1.14,0.14,1.55,0.41s0.72,0.66,0.92,1.15S174.19,179.3,174.19,179.97z M169.74,179.97
			c0,0.49,0.06,0.9,0.18,1.25c0.12,0.35,0.3,0.62,0.55,0.8c0.25,0.19,0.56,0.28,0.94,0.28c0.39,0,0.71-0.09,0.95-0.28
			c0.24-0.19,0.42-0.45,0.54-0.8c0.12-0.35,0.17-0.76,0.17-1.25c0-0.73-0.13-1.3-0.39-1.71s-0.68-0.62-1.27-0.62
			c-0.39,0-0.7,0.09-0.95,0.28c-0.25,0.19-0.43,0.45-0.55,0.8C169.8,179.06,169.74,179.48,169.74,179.97z"/>
	</g>
</g>
<text transform="matrix(0.9213 0 0 1 124.3026 134.2274)"><tspan x="0" y="0" class="st1 st2 st3">- CTOC DApp Ver 1.0  런칭 </tspan><tspan x="0" y="8" class="st1 st2 st3">  : 헬스케어 케이스 매칭 및</tspan><tspan x="0" y="16" class="st1 st2 st3">     리워드 시스템 오픈 </tspan></text>
<circle class="st1" cx="109.22" cy="257.29" r="5.4"/>
<g>
	<g>
		<path class="st1" d="M96.26,279.21h-4.05v-0.84l1.51-1.66c0.3-0.33,0.54-0.61,0.73-0.85c0.19-0.24,0.33-0.46,0.42-0.66
			s0.14-0.43,0.14-0.67c0-0.29-0.08-0.51-0.23-0.66c-0.16-0.15-0.36-0.22-0.61-0.22c-0.25,0-0.48,0.06-0.7,0.17
			c-0.22,0.11-0.44,0.27-0.67,0.47l-0.57-0.75c0.17-0.16,0.34-0.3,0.53-0.43s0.4-0.23,0.64-0.31c0.24-0.08,0.51-0.12,0.83-0.12
			c0.38,0,0.71,0.07,0.98,0.22c0.27,0.15,0.49,0.35,0.63,0.61c0.15,0.26,0.22,0.56,0.22,0.9c0,0.35-0.06,0.67-0.19,0.96
			s-0.31,0.58-0.55,0.87c-0.24,0.29-0.53,0.6-0.86,0.94l-0.94,0.98v0.05h2.74V279.21z"/>
		<path class="st1" d="M100.99,276c0,0.52-0.04,0.98-0.11,1.39c-0.07,0.41-0.19,0.75-0.35,1.04c-0.16,0.29-0.37,0.5-0.63,0.65
			c-0.26,0.15-0.57,0.22-0.94,0.22c-0.46,0-0.85-0.13-1.14-0.4c-0.3-0.26-0.52-0.64-0.66-1.13c-0.14-0.49-0.22-1.08-0.22-1.77
			c0-0.7,0.07-1.29,0.2-1.78s0.35-0.87,0.64-1.13c0.3-0.26,0.69-0.4,1.18-0.4c0.46,0,0.85,0.13,1.14,0.39
			c0.3,0.26,0.52,0.64,0.67,1.13S100.99,275.3,100.99,276z M97.98,276c0,0.52,0.03,0.96,0.09,1.31c0.06,0.35,0.16,0.61,0.3,0.79
			c0.14,0.18,0.33,0.26,0.58,0.26s0.44-0.09,0.58-0.26s0.24-0.44,0.31-0.79c0.06-0.35,0.1-0.79,0.1-1.32c0-0.53-0.03-0.97-0.1-1.32
			c-0.06-0.35-0.17-0.61-0.31-0.79c-0.14-0.18-0.33-0.26-0.58-0.26s-0.44,0.09-0.58,0.26c-0.14,0.18-0.24,0.44-0.3,0.79
			C98.01,275.02,97.98,275.46,97.98,276z"/>
		<path class="st1" d="M105.75,279.21h-4.05v-0.84l1.51-1.66c0.3-0.33,0.54-0.61,0.73-0.85c0.19-0.24,0.33-0.46,0.42-0.66
			s0.14-0.43,0.14-0.67c0-0.29-0.08-0.51-0.23-0.66c-0.16-0.15-0.36-0.22-0.61-0.22c-0.25,0-0.48,0.06-0.7,0.17
			c-0.22,0.11-0.44,0.27-0.67,0.47l-0.57-0.75c0.17-0.16,0.34-0.3,0.53-0.43s0.4-0.23,0.64-0.31c0.24-0.08,0.51-0.12,0.83-0.12
			c0.38,0,0.71,0.07,0.98,0.22c0.27,0.15,0.49,0.35,0.63,0.61c0.15,0.26,0.22,0.56,0.22,0.9c0,0.35-0.06,0.67-0.19,0.96
			s-0.31,0.58-0.55,0.87c-0.24,0.29-0.53,0.6-0.86,0.94l-0.94,0.98v0.05h2.74V279.21z"/>
		<path class="st1" d="M108.49,275.17c0.38,0,0.71,0.08,1,0.22c0.29,0.15,0.51,0.37,0.68,0.65c0.16,0.29,0.24,0.63,0.24,1.05
			c0,0.46-0.09,0.85-0.27,1.18s-0.44,0.58-0.78,0.76s-0.76,0.27-1.26,0.27c-0.31,0-0.6-0.03-0.87-0.09
			c-0.27-0.06-0.51-0.15-0.7-0.26v-1.01c0.2,0.12,0.45,0.22,0.74,0.3c0.29,0.08,0.56,0.12,0.81,0.12c0.27,0,0.49-0.04,0.68-0.12
			s0.33-0.21,0.43-0.38s0.15-0.39,0.15-0.65c0-0.36-0.1-0.63-0.31-0.82c-0.21-0.19-0.54-0.28-0.98-0.28c-0.15,0-0.32,0.02-0.5,0.04
			c-0.18,0.03-0.33,0.06-0.44,0.09l-0.45-0.27l0.22-3.19h3.12v0.99h-2.2l-0.12,1.49c0.09-0.02,0.21-0.04,0.34-0.06
			C108.13,275.18,108.3,275.17,108.49,275.17z"/>
		<path class="st1" d="M111.34,278.63c0-0.26,0.06-0.44,0.18-0.54c0.12-0.1,0.27-0.15,0.45-0.15c0.18,0,0.33,0.05,0.45,0.15
			c0.12,0.1,0.19,0.28,0.19,0.54c0,0.25-0.06,0.42-0.19,0.53c-0.12,0.11-0.27,0.16-0.45,0.16c-0.18,0-0.33-0.05-0.45-0.16
			C111.4,279.06,111.34,278.88,111.34,278.63z"/>
		<path class="st1" d="M119.47,274.25c0,0.29-0.05,0.54-0.16,0.76c-0.11,0.22-0.26,0.39-0.44,0.53s-0.41,0.23-0.65,0.29v0.03
			c0.48,0.06,0.83,0.22,1.08,0.48s0.36,0.6,0.36,1.03c0,0.37-0.08,0.71-0.25,1s-0.42,0.53-0.77,0.69s-0.79,0.25-1.33,0.25
			c-0.32,0-0.62-0.03-0.9-0.09c-0.28-0.06-0.54-0.15-0.78-0.27v-1c0.25,0.14,0.51,0.24,0.8,0.31c0.28,0.07,0.55,0.11,0.8,0.11
			c0.48,0,0.82-0.09,1.02-0.28c0.2-0.19,0.3-0.45,0.3-0.79c0-0.22-0.05-0.39-0.15-0.53c-0.1-0.14-0.26-0.24-0.48-0.31
			c-0.22-0.07-0.52-0.1-0.88-0.1h-0.5v-0.91h0.51c0.35,0,0.62-0.04,0.83-0.13c0.2-0.08,0.35-0.2,0.43-0.35
			c0.09-0.15,0.13-0.32,0.13-0.52c0-0.26-0.08-0.46-0.23-0.6c-0.15-0.14-0.39-0.22-0.7-0.22c-0.2,0-0.38,0.02-0.54,0.07
			c-0.16,0.05-0.31,0.11-0.44,0.18c-0.13,0.08-0.26,0.16-0.37,0.24l-0.5-0.78c0.22-0.18,0.49-0.33,0.8-0.46
			c0.31-0.13,0.68-0.19,1.1-0.19c0.61,0,1.09,0.14,1.42,0.42S119.47,273.77,119.47,274.25z"/>
		<path class="st1" d="M126.09,275.99c0,0.5-0.06,0.95-0.17,1.35c-0.11,0.41-0.29,0.75-0.51,1.05c-0.23,0.29-0.52,0.52-0.88,0.67
			l1.43,1.68h-1.41l-1.1-1.44c-0.02,0-0.05,0-0.07,0s-0.05,0-0.07,0c-0.48,0-0.89-0.08-1.24-0.24c-0.35-0.16-0.64-0.38-0.87-0.68
			c-0.23-0.29-0.4-0.64-0.51-1.05s-0.17-0.86-0.17-1.36c0-0.67,0.1-1.25,0.3-1.74c0.2-0.49,0.51-0.88,0.92-1.15
			c0.41-0.27,0.94-0.41,1.57-0.41c0.62,0,1.14,0.14,1.55,0.41c0.41,0.27,0.72,0.66,0.92,1.15S126.09,275.32,126.09,275.99z
			 M121.64,275.99c0,0.49,0.06,0.9,0.18,1.25c0.12,0.35,0.3,0.62,0.55,0.8c0.25,0.19,0.56,0.28,0.94,0.28
			c0.39,0,0.71-0.09,0.95-0.28c0.24-0.19,0.42-0.45,0.54-0.8c0.12-0.35,0.17-0.76,0.17-1.25c0-0.73-0.13-1.3-0.39-1.71
			s-0.68-0.62-1.27-0.62c-0.39,0-0.7,0.09-0.95,0.28c-0.25,0.19-0.43,0.45-0.55,0.8C121.7,275.09,121.64,275.5,121.64,275.99z"/>
	</g>
</g>
<text transform="matrix(0.9213 0 0 1 76.6443 231.2484)"><tspan x="0" y="0" class="st1 st2 st3">- CTOC DApp Ver 2.0  런칭</tspan><tspan x="0" y="8" class="st1 st2 st3">  : 헬스케어 케이스 챌린지</tspan><tspan x="0" y="16" class="st1 st2 st3">    서비스 오픈</tspan></text>
<circle class="st1" cx="187.78" cy="257.29" r="5.4"/>
<g>
	<g>
		<path class="st1" d="M174.82,279.21h-4.05v-0.84l1.51-1.66c0.3-0.33,0.54-0.61,0.73-0.85c0.19-0.24,0.33-0.46,0.42-0.66
			s0.14-0.43,0.14-0.67c0-0.29-0.08-0.51-0.23-0.66c-0.16-0.15-0.36-0.22-0.61-0.22c-0.25,0-0.48,0.06-0.7,0.17
			c-0.22,0.11-0.44,0.27-0.67,0.47l-0.57-0.75c0.17-0.16,0.34-0.3,0.53-0.43s0.4-0.23,0.64-0.31c0.24-0.08,0.51-0.12,0.83-0.12
			c0.38,0,0.71,0.07,0.98,0.22c0.27,0.15,0.49,0.35,0.63,0.61c0.15,0.26,0.22,0.56,0.22,0.9c0,0.35-0.06,0.67-0.19,0.96
			s-0.31,0.58-0.55,0.87c-0.24,0.29-0.53,0.6-0.86,0.94l-0.94,0.98v0.05h2.74V279.21z"/>
		<path class="st1" d="M179.55,276c0,0.52-0.04,0.98-0.11,1.39c-0.07,0.41-0.19,0.75-0.35,1.04c-0.16,0.29-0.37,0.5-0.63,0.65
			c-0.26,0.15-0.57,0.22-0.94,0.22c-0.46,0-0.85-0.13-1.14-0.4c-0.3-0.26-0.52-0.64-0.66-1.13c-0.14-0.49-0.22-1.08-0.22-1.77
			c0-0.7,0.07-1.29,0.2-1.78s0.35-0.87,0.64-1.13c0.3-0.26,0.69-0.4,1.18-0.4c0.46,0,0.85,0.13,1.14,0.39
			c0.3,0.26,0.52,0.64,0.67,1.13S179.55,275.3,179.55,276z M176.54,276c0,0.52,0.03,0.96,0.09,1.31c0.06,0.35,0.16,0.61,0.3,0.79
			c0.14,0.18,0.33,0.26,0.58,0.26s0.44-0.09,0.58-0.26s0.24-0.44,0.31-0.79c0.06-0.35,0.1-0.79,0.1-1.32c0-0.53-0.03-0.97-0.1-1.32
			c-0.06-0.35-0.17-0.61-0.31-0.79c-0.14-0.18-0.33-0.26-0.58-0.26s-0.44,0.09-0.58,0.26c-0.14,0.18-0.24,0.44-0.3,0.79
			C176.57,275.02,176.54,275.46,176.54,276z"/>
		<path class="st1" d="M184.31,279.21h-4.05v-0.84l1.51-1.66c0.3-0.33,0.54-0.61,0.73-0.85c0.19-0.24,0.33-0.46,0.42-0.66
			s0.14-0.43,0.14-0.67c0-0.29-0.08-0.51-0.23-0.66c-0.16-0.15-0.36-0.22-0.61-0.22c-0.25,0-0.48,0.06-0.7,0.17
			c-0.22,0.11-0.44,0.27-0.67,0.47l-0.57-0.75c0.17-0.16,0.34-0.3,0.53-0.43s0.4-0.23,0.64-0.31c0.24-0.08,0.51-0.12,0.83-0.12
			c0.38,0,0.71,0.07,0.98,0.22c0.27,0.15,0.49,0.35,0.63,0.61c0.15,0.26,0.22,0.56,0.22,0.9c0,0.35-0.06,0.67-0.19,0.96
			s-0.31,0.58-0.55,0.87c-0.24,0.29-0.53,0.6-0.86,0.94l-0.94,0.98v0.05h2.74V279.21z"/>
		<path class="st1" d="M184.99,276.47c0-0.37,0.02-0.74,0.07-1.1c0.05-0.36,0.13-0.7,0.25-1.02c0.12-0.32,0.29-0.61,0.51-0.86
			s0.49-0.44,0.83-0.58c0.33-0.14,0.73-0.21,1.21-0.21c0.12,0,0.25,0.01,0.4,0.02s0.27,0.03,0.37,0.05v0.94
			c-0.1-0.04-0.22-0.06-0.34-0.08c-0.12-0.01-0.25-0.02-0.38-0.02c-0.37,0-0.68,0.06-0.92,0.17s-0.44,0.27-0.58,0.47
			c-0.14,0.2-0.24,0.44-0.31,0.71c-0.06,0.27-0.1,0.56-0.12,0.89h0.05c0.08-0.14,0.18-0.27,0.3-0.39c0.12-0.11,0.26-0.2,0.44-0.27
			c0.17-0.07,0.37-0.1,0.6-0.1c0.34,0,0.64,0.08,0.9,0.24s0.45,0.39,0.59,0.68c0.14,0.3,0.21,0.66,0.21,1.08
			c0,0.46-0.08,0.85-0.24,1.18c-0.16,0.33-0.39,0.58-0.68,0.76s-0.64,0.27-1.04,0.27c-0.3,0-0.58-0.06-0.83-0.17
			c-0.25-0.11-0.48-0.29-0.67-0.52c-0.19-0.23-0.34-0.53-0.45-0.88C185.05,277.37,184.99,276.96,184.99,276.47z M187.08,278.37
			c0.28,0,0.51-0.1,0.69-0.31s0.27-0.53,0.27-0.96c0-0.34-0.08-0.62-0.23-0.82c-0.15-0.2-0.39-0.31-0.7-0.31
			c-0.21,0-0.39,0.05-0.55,0.15c-0.16,0.1-0.28,0.23-0.37,0.38c-0.09,0.15-0.13,0.31-0.13,0.47c0,0.17,0.02,0.33,0.06,0.5
			s0.11,0.31,0.19,0.45s0.2,0.25,0.32,0.33C186.75,278.33,186.91,278.37,187.08,278.37z"/>
		<path class="st1" d="M189.9,278.63c0-0.26,0.06-0.44,0.18-0.54c0.12-0.1,0.27-0.15,0.45-0.15c0.18,0,0.33,0.05,0.45,0.15
			c0.12,0.1,0.19,0.28,0.19,0.54c0,0.25-0.06,0.42-0.19,0.53c-0.12,0.11-0.27,0.16-0.45,0.16c-0.18,0-0.33-0.05-0.45-0.16
			C189.96,279.06,189.9,278.88,189.9,278.63z"/>
		<path class="st1" d="M197.09,279.21h-1.04v-4c0-0.13,0-0.27,0-0.41c0-0.14,0.01-0.28,0.01-0.42c0.01-0.14,0.01-0.27,0.02-0.39
			c-0.05,0.06-0.12,0.13-0.21,0.21s-0.17,0.16-0.26,0.25l-0.66,0.58l-0.52-0.7l1.79-1.54h0.87V279.21z"/>
		<path class="st1" d="M204.65,275.99c0,0.5-0.06,0.95-0.17,1.35c-0.11,0.41-0.29,0.75-0.51,1.05s-0.52,0.52-0.88,0.67l1.43,1.68
			h-1.41l-1.1-1.44c-0.02,0-0.05,0-0.07,0c-0.03,0-0.05,0-0.07,0c-0.48,0-0.89-0.08-1.24-0.24c-0.35-0.16-0.64-0.38-0.87-0.68
			c-0.23-0.29-0.4-0.64-0.51-1.05s-0.17-0.86-0.17-1.36c0-0.67,0.1-1.25,0.3-1.74c0.2-0.49,0.51-0.88,0.92-1.15
			c0.41-0.27,0.94-0.41,1.57-0.41c0.62,0,1.14,0.14,1.55,0.41c0.41,0.27,0.72,0.66,0.92,1.15
			C204.55,274.74,204.65,275.32,204.65,275.99z M200.2,275.99c0,0.49,0.06,0.9,0.18,1.25c0.12,0.35,0.3,0.62,0.55,0.8
			c0.25,0.19,0.56,0.28,0.94,0.28c0.39,0,0.71-0.09,0.95-0.28c0.24-0.19,0.42-0.45,0.54-0.8c0.12-0.35,0.17-0.76,0.17-1.25
			c0-0.73-0.13-1.3-0.39-1.71s-0.68-0.62-1.27-0.62c-0.39,0-0.7,0.09-0.95,0.28c-0.25,0.19-0.43,0.45-0.55,0.8
			C200.26,275.09,200.2,275.5,200.2,275.99z"/>
	</g>
</g>
<text transform="matrix(0.9213 0 0 1 155.2043 238.2484)"><tspan x="0" y="0" class="st1 st2 st3">- CTOC DApp Ver 3.0  런칭</tspan><tspan x="0" y="8" class="st1 st2 st3">    : 구독서비스 오픈</tspan></text>
<circle class="st1" cx="271.5" cy="257.29" r="5.4"/>
<g>
	<g>
		<path class="st1" d="M258.55,279.21h-4.05v-0.84l1.51-1.66c0.3-0.33,0.54-0.61,0.73-0.85c0.19-0.24,0.33-0.46,0.42-0.66
			c0.09-0.2,0.14-0.43,0.14-0.67c0-0.29-0.08-0.51-0.23-0.66c-0.16-0.15-0.36-0.22-0.61-0.22c-0.25,0-0.48,0.06-0.7,0.17
			c-0.21,0.11-0.44,0.27-0.67,0.47l-0.57-0.75c0.17-0.16,0.34-0.3,0.53-0.43c0.19-0.13,0.4-0.23,0.64-0.31s0.51-0.12,0.83-0.12
			c0.38,0,0.71,0.07,0.98,0.22c0.27,0.15,0.49,0.35,0.63,0.61s0.22,0.56,0.22,0.9c0,0.35-0.06,0.67-0.19,0.96s-0.31,0.58-0.55,0.87
			c-0.24,0.29-0.53,0.6-0.86,0.94l-0.94,0.98v0.05h2.74V279.21z"/>
		<path class="st1" d="M263.27,276c0,0.52-0.04,0.98-0.11,1.39s-0.19,0.75-0.35,1.04c-0.16,0.29-0.37,0.5-0.63,0.65
			c-0.26,0.15-0.57,0.22-0.94,0.22c-0.46,0-0.85-0.13-1.14-0.4c-0.3-0.26-0.52-0.64-0.66-1.13s-0.22-1.08-0.22-1.77
			c0-0.7,0.07-1.29,0.2-1.78s0.35-0.87,0.64-1.13c0.3-0.26,0.69-0.4,1.18-0.4c0.46,0,0.85,0.13,1.14,0.39s0.52,0.64,0.67,1.13
			S263.27,275.3,263.27,276z M260.27,276c0,0.52,0.03,0.96,0.09,1.31c0.06,0.35,0.16,0.61,0.3,0.79c0.14,0.18,0.33,0.26,0.58,0.26
			s0.44-0.09,0.58-0.26c0.14-0.17,0.24-0.44,0.31-0.79c0.06-0.35,0.1-0.79,0.1-1.32c0-0.53-0.03-0.97-0.1-1.32
			c-0.06-0.35-0.17-0.61-0.31-0.79c-0.14-0.18-0.33-0.26-0.58-0.26s-0.44,0.09-0.58,0.26c-0.14,0.18-0.24,0.44-0.3,0.79
			S260.27,275.46,260.27,276z"/>
		<path class="st1" d="M268.03,279.21h-4.05v-0.84l1.51-1.66c0.3-0.33,0.54-0.61,0.73-0.85s0.33-0.46,0.42-0.66
			c0.09-0.2,0.14-0.43,0.14-0.67c0-0.29-0.08-0.51-0.23-0.66c-0.16-0.15-0.36-0.22-0.61-0.22c-0.25,0-0.48,0.06-0.7,0.17
			s-0.44,0.27-0.67,0.47l-0.57-0.75c0.17-0.16,0.34-0.3,0.53-0.43c0.19-0.13,0.4-0.23,0.64-0.31c0.24-0.08,0.51-0.12,0.83-0.12
			c0.38,0,0.71,0.07,0.98,0.22c0.27,0.15,0.49,0.35,0.63,0.61c0.15,0.26,0.22,0.56,0.22,0.9c0,0.35-0.06,0.67-0.19,0.96
			s-0.31,0.58-0.55,0.87c-0.24,0.29-0.53,0.6-0.86,0.94l-0.94,0.98v0.05h2.74V279.21z"/>
		<path class="st1" d="M268.72,276.47c0-0.37,0.02-0.74,0.07-1.1c0.05-0.36,0.13-0.7,0.25-1.02c0.12-0.32,0.29-0.61,0.51-0.86
			c0.22-0.25,0.49-0.44,0.83-0.58c0.33-0.14,0.74-0.21,1.21-0.21c0.12,0,0.25,0.01,0.4,0.02s0.27,0.03,0.37,0.05v0.94
			c-0.1-0.04-0.22-0.06-0.34-0.08c-0.12-0.01-0.25-0.02-0.38-0.02c-0.37,0-0.68,0.06-0.92,0.17s-0.44,0.27-0.58,0.47
			c-0.14,0.2-0.24,0.44-0.31,0.71c-0.06,0.27-0.1,0.56-0.12,0.89h0.05c0.08-0.14,0.18-0.27,0.3-0.39c0.12-0.11,0.26-0.2,0.44-0.27
			c0.17-0.07,0.37-0.1,0.6-0.1c0.34,0,0.64,0.08,0.9,0.24c0.25,0.16,0.45,0.39,0.59,0.68c0.14,0.3,0.21,0.66,0.21,1.08
			c0,0.46-0.08,0.85-0.24,1.18c-0.16,0.33-0.39,0.58-0.68,0.76s-0.64,0.27-1.04,0.27c-0.3,0-0.58-0.06-0.83-0.17
			c-0.25-0.11-0.48-0.29-0.67-0.52c-0.19-0.23-0.34-0.53-0.45-0.88C268.78,277.37,268.72,276.96,268.72,276.47z M270.81,278.37
			c0.28,0,0.51-0.1,0.69-0.31s0.27-0.53,0.27-0.96c0-0.34-0.08-0.62-0.23-0.82c-0.15-0.2-0.39-0.31-0.7-0.31
			c-0.21,0-0.39,0.05-0.55,0.15c-0.16,0.1-0.28,0.23-0.37,0.38c-0.09,0.15-0.13,0.31-0.13,0.47c0,0.17,0.02,0.33,0.06,0.5
			c0.04,0.16,0.11,0.31,0.19,0.45c0.09,0.14,0.2,0.25,0.32,0.33C270.48,278.33,270.63,278.37,270.81,278.37z"/>
		<path class="st1" d="M273.63,278.63c0-0.26,0.06-0.44,0.18-0.54c0.12-0.1,0.27-0.15,0.45-0.15s0.33,0.05,0.45,0.15
			c0.12,0.1,0.19,0.28,0.19,0.54c0,0.25-0.06,0.42-0.19,0.53c-0.12,0.11-0.28,0.16-0.45,0.16s-0.33-0.05-0.45-0.16
			C273.69,279.06,273.63,278.88,273.63,278.63z"/>
		<path class="st1" d="M282.17,277.83h-0.77v1.38h-1.03v-1.38h-2.64v-0.85l2.66-4.22h1v4.14h0.77V277.83z M280.37,275.47
			c0-0.13,0-0.26,0-0.39s0.01-0.27,0.01-0.4c0-0.13,0.01-0.25,0.02-0.36c0-0.11,0.01-0.19,0.02-0.25h-0.03
			c-0.05,0.11-0.1,0.23-0.16,0.36c-0.06,0.12-0.12,0.24-0.19,0.35l-1.34,2.14h1.68V275.47z"/>
		<path class="st1" d="M288.38,275.99c0,0.5-0.06,0.95-0.17,1.35c-0.11,0.41-0.29,0.75-0.51,1.05s-0.52,0.52-0.88,0.67l1.43,1.68
			h-1.41l-1.1-1.44c-0.02,0-0.05,0-0.07,0c-0.03,0-0.05,0-0.07,0c-0.48,0-0.89-0.08-1.24-0.24c-0.35-0.16-0.64-0.38-0.87-0.68
			c-0.23-0.29-0.4-0.64-0.51-1.05s-0.17-0.86-0.17-1.36c0-0.67,0.1-1.25,0.3-1.74c0.2-0.49,0.51-0.88,0.92-1.15
			c0.41-0.27,0.94-0.41,1.57-0.41c0.62,0,1.14,0.14,1.55,0.41c0.41,0.27,0.72,0.66,0.92,1.15
			C288.28,274.74,288.38,275.32,288.38,275.99z M283.93,275.99c0,0.49,0.06,0.9,0.18,1.25c0.12,0.35,0.3,0.62,0.55,0.8
			c0.25,0.19,0.56,0.28,0.94,0.28c0.39,0,0.71-0.09,0.95-0.28c0.24-0.19,0.42-0.45,0.54-0.8c0.12-0.35,0.17-0.76,0.17-1.25
			c0-0.73-0.13-1.3-0.39-1.71s-0.68-0.62-1.27-0.62c-0.39,0-0.7,0.09-0.95,0.28c-0.25,0.19-0.43,0.45-0.55,0.8
			C283.99,275.09,283.93,275.5,283.93,275.99z"/>
	</g>
</g>
<text transform="matrix(0.9213 0 0 1 238.9329 238.2484)"><tspan x="0" y="0" class="st1 st2 st3">- CTOC DApp Ver 4.0  런칭</tspan><tspan x="0" y="8" class="st1 st2 st3">    : 기능의학 커뮤니티 서비스 런칭</tspan></text>
</svg>
