<?xml version="1.0" encoding="utf-8"?>
<!-- Generator: Adobe Illustrator 27.9.4, SVG Export Plug-In . SVG Version: 9.03 Build 54784)  -->
<svg version="1.1" id="Layer_1" xmlns="http://www.w3.org/2000/svg" xmlns:xlink="http://www.w3.org/1999/xlink" x="0px" y="0px"
	 viewBox="0 0 431 262.4" style="enable-background:new 0 0 431 262.4;" xml:space="preserve">
<style type="text/css">
	.st0{display:none;}
	.st1{fill:#221F1F;}
	.st2{fill:#0CA9A2;}
	.st3{fill:#7CCCC5;}
	.st4{fill:#80BF6A;}
	.st5{fill:#997EB4;}
	.st6{fill:#EF6C4C;}
	.st7{fill:#EFB91B;}
	.st8{fill:#DCDCDC;}
	.st9{fill:none;stroke:#FFFFFF;stroke-miterlimit:10;}
	.st10{fill:#FFFFFF;}
</style>
<g id="Layer_1_00000145759085347623337640000001695256958748805011_" class="st0">
</g>
<g>
	<path class="st1" d="M275.52,145.47c0,10.57-3.16,20.39-8.57,28.59l48.03,31.61c11.39-17.27,18.03-37.96,18.03-60.2
		c0-60.48-49.03-109.5-109.5-109.5v57.49C252.23,93.46,275.52,116.75,275.52,145.47z"/>
	<path class="st1" d="M223.51,93.46V35.97c-11.64,0-22.85,1.82-33.37,5.19l17.52,54.77C212.65,94.33,217.98,93.46,223.51,93.46z"/>
	<path class="st1" d="M180.62,174.91l-47.4,32.53c13.54,19.7,33.36,34.74,56.57,42.24l17.7-54.71
		C196.47,191.4,187.05,184.26,180.62,174.91z"/>
	<path class="st1" d="M266.95,174.07c-9.3,14.11-25.28,23.42-43.45,23.42c-5.59,0-10.97-0.89-16.01-2.52l-17.7,54.71
		c10.62,3.43,21.95,5.3,33.72,5.3c38.24,0,71.89-19.6,91.47-49.3L266.95,174.07z"/>
	<path class="st1" d="M171.49,145.47H114c0,23,7.1,44.34,19.21,61.96l47.4-32.53C174.87,166.54,171.49,156.4,171.49,145.47z"/>
	<path class="st1" d="M180.06,116.88l-48.03-31.61c-11.39,17.27-18.03,37.96-18.03,60.2h57.49
		C171.49,134.91,174.65,125.09,180.06,116.88z"/>
	<path class="st1" d="M207.66,95.93l-17.52-54.77c-24.05,7.69-44.48,23.46-58.1,44.11l48.03,31.61
		C186.53,107.07,196.23,99.58,207.66,95.93z"/>
</g>
<g>
	<path class="st2" d="M271.62,142.18c0,10.57-3.16,20.39-8.57,28.59l48.03,31.61c11.39-17.27,18.03-37.96,18.03-60.2
		c0-60.48-49.03-109.5-109.5-109.5v57.49C248.33,90.16,271.62,113.45,271.62,142.18z"/>
	<path class="st3" d="M219.6,90.16V32.67c-11.64,0-22.85,1.82-33.37,5.19l17.52,54.77C208.75,91.03,214.08,90.16,219.6,90.16z"/>
	<path class="st4" d="M176.72,171.61l-47.4,32.53c13.54,19.7,33.36,34.74,56.57,42.24l17.7-54.71
		C192.56,188.11,183.15,180.96,176.72,171.61z"/>
	<path class="st5" d="M263.05,170.77c-9.3,14.11-25.28,23.42-43.45,23.42c-5.59,0-10.97-0.89-16.01-2.52l-17.7,54.71
		c10.62,3.43,21.95,5.3,33.72,5.3c38.24,0,71.89-19.6,91.47-49.3L263.05,170.77z"/>
	<path class="st6" d="M167.59,142.18H110.1c0,23,7.1,44.34,19.21,61.96l47.4-32.53C170.96,163.24,167.59,153.1,167.59,142.18z"/>
	<path class="st7" d="M176.16,113.58l-48.03-31.61c-11.39,17.27-18.03,37.96-18.03,60.2h57.49
		C167.59,131.61,170.75,121.79,176.16,113.58z"/>
	<path class="st8" d="M203.75,92.63l-17.52-54.77c-24.05,7.69-44.48,23.46-58.1,44.11l48.03,31.61
		C182.63,103.77,192.33,96.28,203.75,92.63z"/>
</g>
<polyline class="st9" points="280.14,95.93 311.08,68.94 391.9,68.94 "/>
<polyline class="st9" points="241.05,223.24 274.36,254.98 364.3,254.98 "/>
<polyline class="st9" points="169.84,214.52 143.41,239.11 59.35,239.11 "/>
<polyline class="st9" points="135.34,161.7 110.1,185.23 29.15,185.23 "/>
<polyline class="st9" points="132.03,115.37 101.41,132.74 29.91,132.74 "/>
<polyline class="st9" points="164.3,68.94 143.41,48.12 85.83,48.12 "/>
<polyline class="st9" points="207.66,50.84 190.14,21.43 130.34,21.43 "/>
<g>
	<g>
		<path class="st10" d="M319.97,63.65h-4.06v-7.14h4.06v1.07h-2.78v1.82h2.6v1.07h-2.6v2.1h2.78V63.65z"/>
		<path class="st10" d="M323.56,63.75c-0.51,0-0.96-0.1-1.33-0.29c-0.38-0.2-0.67-0.5-0.87-0.91s-0.3-0.94-0.3-1.58
			c0-0.67,0.11-1.21,0.33-1.62c0.22-0.42,0.53-0.72,0.92-0.92c0.39-0.2,0.84-0.29,1.35-0.29c0.34,0,0.64,0.03,0.91,0.1
			s0.49,0.15,0.68,0.24l-0.37,0.99c-0.21-0.08-0.41-0.15-0.62-0.21c-0.21-0.06-0.41-0.08-0.6-0.08c-0.3,0-0.55,0.07-0.74,0.2
			c-0.2,0.13-0.34,0.33-0.44,0.59c-0.09,0.26-0.14,0.6-0.14,1c0,0.39,0.05,0.71,0.14,0.97c0.1,0.26,0.24,0.46,0.44,0.59
			c0.19,0.13,0.43,0.19,0.72,0.19c0.31,0,0.58-0.04,0.81-0.11s0.45-0.17,0.66-0.3v1.09c-0.21,0.13-0.43,0.22-0.67,0.27
			S323.91,63.75,323.56,63.75z"/>
		<path class="st10" d="M331.22,60.93c0,0.45-0.06,0.85-0.18,1.2s-0.29,0.64-0.51,0.89c-0.22,0.24-0.5,0.43-0.82,0.55
			c-0.32,0.12-0.68,0.19-1.08,0.19c-0.37,0-0.71-0.06-1.02-0.19c-0.31-0.12-0.58-0.31-0.82-0.55c-0.23-0.24-0.41-0.54-0.54-0.89
			c-0.13-0.35-0.19-0.75-0.19-1.2c0-0.6,0.1-1.11,0.31-1.52c0.21-0.41,0.5-0.73,0.9-0.95c0.39-0.22,0.85-0.33,1.38-0.33
			c0.51,0,0.95,0.11,1.33,0.33c0.38,0.22,0.68,0.53,0.91,0.95C331.11,59.82,331.22,60.33,331.22,60.93z M327.35,60.93
			c0,0.38,0.04,0.71,0.13,0.98s0.23,0.48,0.42,0.62c0.19,0.14,0.43,0.21,0.74,0.21c0.31,0,0.55-0.07,0.75-0.21
			c0.19-0.14,0.33-0.35,0.42-0.62c0.09-0.27,0.13-0.59,0.13-0.98c0-0.39-0.04-0.71-0.14-0.97c-0.09-0.26-0.23-0.46-0.42-0.6
			c-0.19-0.14-0.43-0.21-0.73-0.21c-0.45,0-0.78,0.15-0.99,0.46S327.35,60.36,327.35,60.93z"/>
		<path class="st10" d="M336.21,62.08c0,0.36-0.09,0.67-0.26,0.92c-0.17,0.25-0.43,0.44-0.77,0.56c-0.34,0.13-0.75,0.19-1.23,0.19
			c-0.38,0-0.71-0.03-0.98-0.08s-0.53-0.14-0.78-0.25v-1.07c0.27,0.13,0.56,0.23,0.89,0.32c0.33,0.09,0.63,0.13,0.91,0.13
			c0.35,0,0.6-0.05,0.75-0.16c0.15-0.11,0.23-0.25,0.23-0.43c0-0.11-0.03-0.2-0.09-0.29c-0.06-0.09-0.18-0.18-0.35-0.27
			c-0.17-0.1-0.44-0.22-0.79-0.37c-0.35-0.14-0.64-0.28-0.87-0.42c-0.23-0.14-0.4-0.31-0.52-0.5c-0.12-0.2-0.17-0.45-0.17-0.75
			c0-0.49,0.19-0.85,0.58-1.1s0.9-0.38,1.53-0.38c0.33,0,0.65,0.03,0.95,0.1c0.3,0.06,0.59,0.17,0.89,0.3l-0.4,0.93
			c-0.25-0.11-0.49-0.2-0.73-0.27s-0.49-0.11-0.75-0.11c-0.27,0-0.48,0.04-0.62,0.12s-0.21,0.2-0.21,0.34
			c0,0.11,0.04,0.21,0.11,0.29c0.07,0.08,0.19,0.17,0.37,0.25c0.18,0.08,0.43,0.19,0.76,0.33c0.33,0.13,0.6,0.26,0.83,0.4
			c0.23,0.14,0.41,0.31,0.53,0.5C336.15,61.52,336.21,61.78,336.21,62.08z"/>
		<path class="st10" d="M336.61,58.23h1.37l1.08,3.06c0.05,0.13,0.09,0.26,0.12,0.38c0.04,0.12,0.07,0.25,0.09,0.38
			c0.03,0.13,0.05,0.25,0.06,0.38h0.04c0.03-0.17,0.07-0.35,0.12-0.55s0.12-0.4,0.18-0.59l1.04-3.06h1.36l-2.31,6.14
			c-0.13,0.35-0.3,0.66-0.5,0.91c-0.2,0.25-0.44,0.45-0.72,0.58c-0.28,0.13-0.59,0.19-0.93,0.19c-0.16,0-0.3-0.01-0.42-0.02
			c-0.12-0.02-0.23-0.04-0.33-0.06v-1c0.07,0.01,0.16,0.03,0.26,0.04s0.21,0.02,0.33,0.02c0.21,0,0.38-0.04,0.54-0.12
			s0.28-0.2,0.38-0.34c0.1-0.15,0.19-0.31,0.25-0.49l0.16-0.44L336.61,58.23z"/>
		<path class="st10" d="M346.58,62.08c0,0.36-0.09,0.67-0.26,0.92c-0.17,0.25-0.43,0.44-0.77,0.56c-0.34,0.13-0.75,0.19-1.23,0.19
			c-0.38,0-0.71-0.03-0.98-0.08s-0.53-0.14-0.78-0.25v-1.07c0.27,0.13,0.56,0.23,0.89,0.32c0.33,0.09,0.63,0.13,0.91,0.13
			c0.35,0,0.6-0.05,0.75-0.16c0.15-0.11,0.23-0.25,0.23-0.43c0-0.11-0.03-0.2-0.09-0.29c-0.06-0.09-0.18-0.18-0.35-0.27
			c-0.17-0.1-0.44-0.22-0.79-0.37c-0.35-0.14-0.64-0.28-0.87-0.42c-0.23-0.14-0.4-0.31-0.52-0.5c-0.12-0.2-0.17-0.45-0.17-0.75
			c0-0.49,0.19-0.85,0.58-1.1s0.9-0.38,1.53-0.38c0.33,0,0.65,0.03,0.95,0.1c0.3,0.06,0.59,0.17,0.89,0.3l-0.4,0.93
			c-0.25-0.11-0.49-0.2-0.73-0.27s-0.49-0.11-0.75-0.11c-0.27,0-0.48,0.04-0.62,0.12s-0.21,0.2-0.21,0.34
			c0,0.11,0.04,0.21,0.11,0.29c0.07,0.08,0.19,0.17,0.37,0.25c0.18,0.08,0.43,0.19,0.76,0.33c0.33,0.13,0.6,0.26,0.83,0.4
			c0.23,0.14,0.41,0.31,0.53,0.5C346.52,61.52,346.58,61.78,346.58,62.08z"/>
		<path class="st10" d="M349.89,62.74c0.16,0,0.31-0.01,0.46-0.04c0.15-0.03,0.28-0.06,0.41-0.1v0.94
			c-0.13,0.06-0.31,0.11-0.52,0.16c-0.21,0.04-0.44,0.06-0.67,0.06c-0.31,0-0.58-0.05-0.83-0.16c-0.25-0.1-0.45-0.28-0.6-0.53
			c-0.15-0.25-0.23-0.61-0.23-1.06v-2.82h-0.73v-0.55l0.8-0.44l0.4-1.15h0.79v1.19h1.54v0.95h-1.54v2.81c0,0.25,0.07,0.44,0.2,0.56
			C349.5,62.68,349.68,62.74,349.89,62.74z"/>
		<path class="st10" d="M354.03,58.13c0.49,0,0.9,0.1,1.25,0.29c0.35,0.2,0.62,0.48,0.81,0.84s0.29,0.8,0.29,1.32v0.64h-3.58
			c0.01,0.49,0.15,0.88,0.41,1.15c0.26,0.27,0.62,0.4,1.08,0.4c0.35,0,0.67-0.03,0.95-0.1c0.28-0.07,0.56-0.17,0.85-0.3v1.01
			c-0.27,0.13-0.54,0.22-0.83,0.28c-0.29,0.06-0.63,0.09-1.03,0.09c-0.53,0-1-0.1-1.41-0.31c-0.41-0.2-0.73-0.51-0.96-0.92
			c-0.23-0.41-0.34-0.93-0.34-1.54c0-0.62,0.1-1.14,0.31-1.56s0.5-0.74,0.88-0.96C353.09,58.24,353.53,58.13,354.03,58.13z
			 M354.03,59.06c-0.33,0-0.61,0.11-0.82,0.32c-0.21,0.22-0.33,0.54-0.38,0.97h2.33c0-0.25-0.04-0.48-0.12-0.67
			c-0.08-0.19-0.21-0.34-0.38-0.45C354.5,59.12,354.29,59.06,354.03,59.06z"/>
		<path class="st10" d="M363.87,58.13c0.61,0,1.08,0.16,1.39,0.47c0.31,0.31,0.46,0.82,0.46,1.52v3.53h-1.26v-3.29
			c0-0.4-0.08-0.7-0.23-0.9c-0.15-0.2-0.38-0.31-0.69-0.31c-0.44,0-0.75,0.14-0.94,0.43s-0.28,0.7-0.28,1.25v2.82h-1.26v-3.29
			c0-0.27-0.03-0.49-0.1-0.67c-0.07-0.18-0.17-0.31-0.3-0.41c-0.13-0.09-0.31-0.13-0.52-0.13c-0.31,0-0.55,0.07-0.73,0.21
			c-0.18,0.14-0.31,0.35-0.38,0.62c-0.07,0.27-0.11,0.61-0.11,1.01v2.65h-1.26v-5.42h0.97l0.18,0.71h0.07
			c0.11-0.19,0.25-0.34,0.42-0.46c0.16-0.12,0.35-0.21,0.55-0.27s0.41-0.08,0.62-0.08c0.41,0,0.75,0.07,1.03,0.21
			c0.28,0.14,0.49,0.35,0.63,0.63h0.1c0.17-0.29,0.4-0.51,0.71-0.64C363.23,58.2,363.54,58.13,363.87,58.13z"/>
		<path class="st10" d="M374.13,58.14c0,0.32-0.07,0.6-0.2,0.84c-0.13,0.24-0.31,0.44-0.54,0.58s-0.49,0.26-0.79,0.33v0.03
			c0.57,0.07,1.01,0.24,1.3,0.53c0.29,0.29,0.44,0.67,0.44,1.14c0,0.41-0.1,0.78-0.3,1.11c-0.2,0.33-0.51,0.58-0.92,0.77
			c-0.42,0.19-0.95,0.28-1.61,0.28c-0.39,0-0.75-0.03-1.08-0.1c-0.33-0.06-0.65-0.16-0.94-0.29v-1.11c0.3,0.15,0.62,0.27,0.96,0.35
			c0.34,0.08,0.66,0.12,0.96,0.12c0.58,0,0.99-0.1,1.23-0.31c0.24-0.21,0.36-0.5,0.36-0.88c0-0.24-0.06-0.44-0.18-0.59
			s-0.32-0.27-0.58-0.35c-0.27-0.08-0.62-0.11-1.06-0.11h-0.6v-1.01h0.61c0.42,0,0.75-0.05,1-0.14c0.24-0.09,0.42-0.22,0.52-0.39
			s0.16-0.36,0.16-0.58c0-0.29-0.09-0.51-0.28-0.67s-0.47-0.24-0.84-0.24c-0.24,0-0.46,0.03-0.65,0.08
			c-0.19,0.05-0.37,0.12-0.53,0.21c-0.16,0.08-0.31,0.17-0.45,0.27l-0.6-0.87c0.27-0.2,0.59-0.37,0.96-0.51
			c0.38-0.14,0.82-0.21,1.33-0.21c0.74,0,1.31,0.16,1.71,0.47S374.13,57.61,374.13,58.14z"/>
		<path class="st10" d="M377.72,59.16c0.45,0,0.85,0.08,1.2,0.25c0.35,0.17,0.62,0.41,0.81,0.73c0.2,0.32,0.29,0.71,0.29,1.17
			c0,0.51-0.11,0.94-0.32,1.31c-0.21,0.37-0.53,0.65-0.94,0.85c-0.41,0.2-0.92,0.29-1.52,0.29c-0.37,0-0.72-0.03-1.05-0.1
			c-0.33-0.07-0.61-0.16-0.85-0.29v-1.12c0.25,0.13,0.54,0.24,0.89,0.33c0.35,0.09,0.67,0.13,0.98,0.13c0.32,0,0.59-0.04,0.82-0.13
			c0.23-0.09,0.4-0.23,0.52-0.42s0.18-0.43,0.18-0.73c0-0.4-0.13-0.7-0.38-0.91c-0.25-0.21-0.65-0.31-1.18-0.31
			c-0.19,0-0.39,0.02-0.61,0.05s-0.39,0.07-0.53,0.1l-0.54-0.3l0.27-3.54h3.76v1.1h-2.65l-0.15,1.65c0.11-0.02,0.25-0.04,0.41-0.06
			C377.29,59.17,377.49,59.16,377.72,59.16z"/>
		<path class="st10" d="M382.5,56.41c0.54,0,0.95,0.2,1.23,0.59c0.28,0.39,0.42,0.94,0.42,1.65c0,0.71-0.13,1.26-0.4,1.65
			s-0.67,0.6-1.23,0.6c-0.52,0-0.92-0.2-1.19-0.6s-0.41-0.95-0.41-1.65c0-0.71,0.13-1.26,0.38-1.65
			C381.54,56.61,381.95,56.41,382.5,56.41z M382.51,57.28c-0.19,0-0.34,0.11-0.43,0.34s-0.13,0.57-0.13,1.03
			c0,0.45,0.04,0.79,0.13,1.02s0.23,0.35,0.43,0.35c0.2,0,0.35-0.11,0.44-0.34c0.09-0.23,0.14-0.57,0.14-1.03s-0.05-0.8-0.14-1.03
			S382.7,57.28,382.51,57.28z M387.39,56.51l-3.96,7.14h-1.02l3.96-7.14H387.39z M387.27,59.26c0.53,0,0.94,0.2,1.21,0.58
			c0.28,0.39,0.42,0.94,0.42,1.65c0,0.71-0.13,1.26-0.4,1.66c-0.26,0.4-0.67,0.59-1.23,0.59c-0.52,0-0.92-0.2-1.19-0.59
			s-0.41-0.95-0.41-1.66c0-0.71,0.13-1.25,0.38-1.65C386.3,59.46,386.71,59.26,387.27,59.26z M387.27,60.14
			c-0.19,0-0.33,0.11-0.42,0.33c-0.09,0.22-0.14,0.56-0.14,1.02s0.04,0.8,0.14,1.03c0.09,0.23,0.23,0.35,0.42,0.35
			c0.2,0,0.35-0.11,0.44-0.34s0.15-0.57,0.15-1.04c0-0.46-0.05-0.8-0.15-1.02C387.62,60.25,387.47,60.14,387.27,60.14z"/>
	</g>
</g>
<g>
	<g>
		<path class="st10" d="M291.11,249.68h-1.28v-6.06h-2.05v-1.08h5.38v1.08h-2.05V249.68z"/>
		<path class="st10" d="M298.97,246.96c0,0.45-0.06,0.85-0.18,1.2s-0.29,0.64-0.51,0.88c-0.22,0.24-0.5,0.43-0.82,0.55
			c-0.32,0.12-0.68,0.18-1.08,0.18c-0.37,0-0.71-0.06-1.02-0.18c-0.31-0.12-0.58-0.31-0.82-0.55c-0.23-0.24-0.41-0.54-0.54-0.88
			c-0.13-0.35-0.19-0.75-0.19-1.2c0-0.6,0.1-1.11,0.31-1.52c0.21-0.41,0.5-0.73,0.9-0.95c0.39-0.22,0.85-0.33,1.38-0.33
			c0.51,0,0.95,0.11,1.33,0.33c0.38,0.22,0.68,0.53,0.91,0.95C298.86,245.85,298.97,246.36,298.97,246.96z M295.1,246.96
			c0,0.38,0.04,0.71,0.13,0.98c0.09,0.27,0.23,0.47,0.42,0.62c0.19,0.14,0.43,0.21,0.74,0.21c0.31,0,0.55-0.07,0.75-0.21
			c0.19-0.14,0.33-0.35,0.42-0.62c0.09-0.27,0.13-0.6,0.13-0.98c0-0.39-0.04-0.71-0.14-0.97c-0.09-0.26-0.23-0.46-0.42-0.6
			c-0.19-0.14-0.43-0.21-0.73-0.21c-0.45,0-0.78,0.15-0.99,0.46S295.1,246.39,295.1,246.96z"/>
		<path class="st10" d="M301.52,245.69c0,0.17-0.01,0.36-0.02,0.55s-0.03,0.38-0.04,0.55h0.03c0.05-0.08,0.12-0.17,0.19-0.26
			s0.15-0.19,0.23-0.29c0.08-0.1,0.15-0.18,0.22-0.26l1.6-1.71h1.43l-2.17,2.34l2.31,3.08h-1.47l-1.68-2.32l-0.63,0.52v1.8h-1.25
			v-7.6h1.25V245.69z"/>
		<path class="st10" d="M308.33,244.16c0.49,0,0.9,0.1,1.25,0.29c0.35,0.2,0.62,0.48,0.81,0.84s0.29,0.8,0.29,1.33v0.64h-3.58
			c0.01,0.49,0.15,0.88,0.41,1.15c0.26,0.27,0.62,0.41,1.08,0.41c0.35,0,0.67-0.04,0.95-0.11s0.56-0.17,0.85-0.3v1.01
			c-0.27,0.13-0.54,0.22-0.83,0.28c-0.29,0.06-0.63,0.09-1.03,0.09c-0.53,0-1-0.1-1.41-0.31c-0.41-0.2-0.73-0.51-0.96-0.92
			c-0.23-0.41-0.34-0.93-0.34-1.54c0-0.62,0.1-1.14,0.31-1.56s0.5-0.74,0.88-0.96C307.4,244.27,307.83,244.16,308.33,244.16z
			 M308.33,245.09c-0.33,0-0.61,0.11-0.82,0.33c-0.21,0.22-0.33,0.54-0.38,0.97h2.33c0-0.25-0.04-0.48-0.12-0.67
			c-0.08-0.19-0.21-0.34-0.38-0.45C308.81,245.14,308.59,245.09,308.33,245.09z"/>
		<path class="st10" d="M314.86,244.16c0.61,0,1.08,0.16,1.42,0.47c0.34,0.31,0.52,0.82,0.52,1.52v3.53h-1.26v-3.28
			c0-0.41-0.08-0.71-0.24-0.92c-0.16-0.2-0.41-0.31-0.76-0.31c-0.51,0-0.85,0.16-1.04,0.48c-0.19,0.32-0.28,0.77-0.28,1.38v2.65
			h-1.26v-5.42h0.97l0.18,0.71h0.07c0.12-0.19,0.27-0.34,0.44-0.46c0.17-0.12,0.37-0.21,0.58-0.26
			C314.42,244.19,314.64,244.16,314.86,244.16z"/>
		<path class="st10" d="M325.25,247.73c0,0.42-0.1,0.78-0.31,1.09c-0.21,0.31-0.5,0.54-0.89,0.71s-0.86,0.25-1.39,0.25
			c-0.26,0-0.51-0.01-0.75-0.04c-0.24-0.03-0.46-0.08-0.67-0.14c-0.21-0.06-0.41-0.13-0.58-0.22v-1.2c0.3,0.13,0.63,0.26,0.99,0.37
			c0.36,0.11,0.73,0.17,1.1,0.17c0.29,0,0.52-0.04,0.71-0.11c0.18-0.08,0.32-0.18,0.4-0.32c0.09-0.14,0.13-0.29,0.13-0.47
			c0-0.2-0.06-0.37-0.17-0.51s-0.28-0.27-0.5-0.39c-0.22-0.12-0.49-0.25-0.82-0.38c-0.22-0.09-0.44-0.2-0.65-0.31
			s-0.4-0.26-0.56-0.42c-0.17-0.17-0.3-0.36-0.4-0.59c-0.1-0.23-0.15-0.49-0.15-0.8c0-0.41,0.1-0.76,0.3-1.05
			c0.2-0.29,0.47-0.52,0.83-0.67c0.36-0.15,0.77-0.23,1.25-0.23c0.38,0,0.74,0.04,1.07,0.12s0.66,0.19,0.99,0.34l-0.41,1.03
			c-0.29-0.13-0.58-0.23-0.85-0.3c-0.27-0.07-0.55-0.11-0.84-0.11c-0.23,0-0.42,0.04-0.58,0.11c-0.16,0.07-0.28,0.17-0.36,0.29
			s-0.12,0.27-0.12,0.44c0,0.19,0.05,0.36,0.15,0.49c0.1,0.13,0.25,0.26,0.46,0.38c0.21,0.12,0.48,0.25,0.81,0.4
			c0.39,0.17,0.71,0.34,0.98,0.52c0.27,0.18,0.47,0.4,0.62,0.65C325.18,247.04,325.25,247.36,325.25,247.73z"/>
		<path class="st10" d="M328.64,244.16c0.7,0,1.23,0.15,1.6,0.46c0.36,0.3,0.54,0.78,0.54,1.42v3.64h-0.89l-0.25-0.75h-0.04
			c-0.15,0.19-0.31,0.36-0.47,0.49s-0.35,0.22-0.56,0.28c-0.21,0.06-0.46,0.08-0.76,0.08c-0.32,0-0.61-0.06-0.87-0.18
			c-0.26-0.12-0.46-0.3-0.6-0.55s-0.22-0.56-0.22-0.95c0-0.56,0.2-0.98,0.61-1.26c0.41-0.28,1.03-0.44,1.87-0.46l0.94-0.03v-0.27
			c0-0.35-0.08-0.59-0.25-0.74c-0.17-0.15-0.4-0.22-0.7-0.22c-0.27,0-0.54,0.04-0.79,0.12c-0.25,0.08-0.5,0.17-0.74,0.28l-0.4-0.88
			c0.27-0.14,0.57-0.25,0.91-0.34C327.91,244.2,328.27,244.16,328.64,244.16z M328.87,247.14c-0.55,0.02-0.94,0.12-1.15,0.29
			c-0.21,0.17-0.32,0.4-0.32,0.68c0,0.25,0.08,0.44,0.23,0.55s0.35,0.17,0.59,0.17c0.37,0,0.68-0.11,0.93-0.31
			c0.25-0.21,0.38-0.52,0.38-0.94v-0.46L328.87,247.14z"/>
		<path class="st10" d="M333.62,249.68h-1.26v-7.6h1.26V249.68z"/>
		<path class="st10" d="M337.41,244.16c0.49,0,0.9,0.1,1.25,0.29c0.35,0.2,0.62,0.48,0.81,0.84s0.29,0.8,0.29,1.33v0.64h-3.58
			c0.01,0.49,0.15,0.88,0.41,1.15c0.26,0.27,0.62,0.41,1.08,0.41c0.35,0,0.67-0.04,0.95-0.11s0.56-0.17,0.85-0.3v1.01
			c-0.27,0.13-0.54,0.22-0.83,0.28c-0.29,0.06-0.63,0.09-1.03,0.09c-0.53,0-1-0.1-1.41-0.31c-0.41-0.2-0.73-0.51-0.96-0.92
			c-0.23-0.41-0.34-0.93-0.34-1.54c0-0.62,0.1-1.14,0.31-1.56s0.5-0.74,0.88-0.96C336.48,244.27,336.91,244.16,337.41,244.16z
			 M337.41,245.09c-0.33,0-0.61,0.11-0.82,0.33c-0.21,0.22-0.33,0.54-0.38,0.97h2.33c0-0.25-0.04-0.48-0.12-0.67
			c-0.08-0.19-0.21-0.34-0.38-0.45C337.89,245.14,337.67,245.09,337.41,245.09z"/>
		<path class="st10" d="M348.15,249.68h-4.89v-0.93l1.82-1.84c0.36-0.37,0.66-0.68,0.88-0.95c0.23-0.26,0.4-0.51,0.51-0.73
			c0.11-0.23,0.17-0.47,0.17-0.74c0-0.33-0.09-0.57-0.28-0.73c-0.19-0.16-0.43-0.25-0.74-0.25c-0.3,0-0.58,0.06-0.84,0.19
			s-0.53,0.3-0.81,0.53l-0.69-0.83c0.2-0.17,0.41-0.33,0.64-0.48s0.48-0.26,0.77-0.34c0.29-0.09,0.62-0.13,1-0.13
			c0.46,0,0.85,0.08,1.18,0.25c0.33,0.16,0.58,0.39,0.76,0.67c0.18,0.29,0.27,0.62,0.27,1c0,0.39-0.08,0.74-0.23,1.07
			c-0.15,0.33-0.38,0.65-0.67,0.96c-0.29,0.32-0.63,0.67-1.03,1.04l-1.13,1.09v0.06h3.3V249.68z"/>
		<path class="st10" d="M353.85,246.11c0,0.57-0.04,1.09-0.13,1.54s-0.23,0.84-0.42,1.15c-0.2,0.32-0.45,0.56-0.76,0.73
			c-0.31,0.17-0.69,0.25-1.14,0.25c-0.56,0-1.02-0.15-1.38-0.44c-0.36-0.29-0.63-0.71-0.8-1.26s-0.26-1.2-0.26-1.97
			c0-0.77,0.08-1.43,0.24-1.98c0.16-0.55,0.42-0.97,0.77-1.26s0.83-0.44,1.42-0.44c0.56,0,1.02,0.15,1.38,0.44
			c0.36,0.29,0.63,0.71,0.8,1.26C353.76,244.67,353.85,245.34,353.85,246.11z M350.23,246.11c0,0.58,0.04,1.07,0.11,1.45
			c0.07,0.39,0.2,0.68,0.37,0.88s0.4,0.29,0.69,0.29c0.29,0,0.53-0.1,0.7-0.29s0.29-0.49,0.37-0.88c0.08-0.39,0.12-0.88,0.12-1.46
			s-0.04-1.08-0.12-1.47c-0.08-0.39-0.2-0.68-0.37-0.88c-0.17-0.2-0.4-0.29-0.7-0.29c-0.29,0-0.52,0.1-0.69,0.29
			c-0.17,0.2-0.29,0.49-0.37,0.88S350.23,245.52,350.23,246.11z"/>
		<path class="st10" d="M356.24,242.44c0.54,0,0.95,0.2,1.23,0.59c0.28,0.39,0.42,0.94,0.42,1.64s-0.13,1.26-0.4,1.66
			s-0.67,0.59-1.23,0.59c-0.52,0-0.92-0.2-1.19-0.59s-0.41-0.95-0.41-1.66s0.13-1.25,0.38-1.64
			C355.29,242.63,355.69,242.44,356.24,242.44z M356.25,243.31c-0.19,0-0.34,0.11-0.43,0.34s-0.13,0.57-0.13,1.03
			c0,0.45,0.04,0.79,0.13,1.03s0.23,0.35,0.43,0.35c0.2,0,0.35-0.11,0.44-0.34c0.09-0.23,0.14-0.57,0.14-1.03
			c0-0.46-0.05-0.8-0.14-1.03S356.45,243.31,356.25,243.31z M361.13,242.54l-3.96,7.14h-1.02l3.96-7.14H361.13z M361.01,245.29
			c0.53,0,0.94,0.2,1.21,0.58c0.28,0.39,0.42,0.94,0.42,1.64c0,0.71-0.13,1.26-0.4,1.66c-0.26,0.4-0.67,0.59-1.23,0.59
			c-0.52,0-0.92-0.2-1.19-0.59s-0.41-0.95-0.41-1.66c0-0.71,0.13-1.25,0.38-1.64C360.05,245.48,360.45,245.29,361.01,245.29z
			 M361.01,246.17c-0.19,0-0.33,0.11-0.42,0.34c-0.09,0.22-0.14,0.56-0.14,1.02s0.04,0.8,0.14,1.03c0.09,0.23,0.23,0.35,0.42,0.35
			c0.2,0,0.35-0.11,0.44-0.34s0.15-0.57,0.15-1.04c0-0.46-0.05-0.8-0.15-1.02C361.36,246.28,361.21,246.17,361.01,246.17z"/>
	</g>
</g>
<g>
	<g>
		<path class="st10" d="M64.57,232.41l-1.96-5.85h-0.04c0.01,0.13,0.02,0.32,0.03,0.56c0.01,0.24,0.02,0.51,0.04,0.79
			c0.01,0.28,0.01,0.55,0.01,0.79v3.7H61.5v-7.14h1.78l1.88,5.61h0.04l1.96-5.61h1.78v7.14h-1.22v-3.76c0-0.23,0-0.47,0.01-0.75
			c0.01-0.27,0.02-0.53,0.03-0.77c0.01-0.24,0.02-0.43,0.02-0.57h-0.04l-2.04,5.84H64.57z"/>
		<path class="st10" d="M72.83,226.89c0.7,0,1.23,0.15,1.6,0.46c0.36,0.3,0.54,0.78,0.54,1.42v3.64h-0.89l-0.25-0.75h-0.04
			c-0.15,0.19-0.31,0.36-0.47,0.49s-0.35,0.22-0.56,0.28c-0.21,0.06-0.46,0.08-0.76,0.08c-0.32,0-0.61-0.06-0.87-0.18
			s-0.46-0.3-0.6-0.55s-0.22-0.57-0.22-0.95c0-0.56,0.2-0.98,0.61-1.26s1.03-0.44,1.87-0.46l0.94-0.03v-0.27
			c0-0.35-0.08-0.59-0.25-0.74c-0.17-0.15-0.4-0.22-0.7-0.22c-0.27,0-0.54,0.04-0.79,0.12c-0.25,0.08-0.5,0.17-0.74,0.28l-0.4-0.88
			c0.27-0.14,0.57-0.25,0.91-0.34C72.1,226.93,72.46,226.89,72.83,226.89z M73.06,229.87c-0.55,0.02-0.94,0.12-1.15,0.29
			c-0.21,0.17-0.32,0.4-0.32,0.69c0,0.25,0.08,0.44,0.23,0.55s0.35,0.17,0.59,0.17c0.37,0,0.68-0.11,0.93-0.32
			c0.25-0.21,0.38-0.52,0.38-0.93v-0.46L73.06,229.87z"/>
		<path class="st10" d="M79.39,226.89c0.08,0,0.17,0,0.28,0.01s0.2,0.02,0.27,0.04l-0.11,1.17c-0.06-0.01-0.14-0.03-0.23-0.04
			c-0.1-0.01-0.18-0.01-0.26-0.01c-0.2,0-0.39,0.03-0.57,0.09c-0.18,0.06-0.35,0.16-0.49,0.28s-0.26,0.28-0.34,0.47
			c-0.08,0.19-0.12,0.42-0.12,0.69v2.81h-1.26v-5.42h0.97l0.18,0.94h0.06c0.11-0.19,0.24-0.37,0.4-0.53
			c0.16-0.16,0.34-0.28,0.55-0.38C78.93,226.93,79.15,226.89,79.39,226.89z"/>
		<path class="st10" d="M82.19,228.42c0,0.17-0.01,0.36-0.02,0.55c-0.01,0.19-0.03,0.38-0.04,0.55h0.03
			c0.05-0.08,0.12-0.17,0.19-0.26s0.15-0.19,0.23-0.29c0.08-0.1,0.15-0.19,0.22-0.27l1.6-1.71h1.43l-2.17,2.34l2.31,3.08H84.5
			l-1.68-2.32l-0.63,0.52v1.8h-1.25v-7.6h1.25V228.42z"/>
		<path class="st10" d="M89,226.89c0.49,0,0.9,0.1,1.25,0.29c0.35,0.2,0.62,0.48,0.81,0.84s0.29,0.8,0.29,1.33v0.64h-3.58
			c0.01,0.49,0.15,0.88,0.41,1.15c0.26,0.27,0.62,0.4,1.08,0.4c0.35,0,0.67-0.03,0.95-0.1s0.56-0.17,0.85-0.3v1.01
			c-0.27,0.13-0.54,0.22-0.83,0.28c-0.29,0.06-0.63,0.09-1.03,0.09c-0.53,0-1-0.1-1.41-0.31c-0.41-0.2-0.73-0.51-0.96-0.92
			c-0.23-0.41-0.34-0.93-0.34-1.54c0-0.62,0.1-1.14,0.31-1.56c0.21-0.42,0.5-0.74,0.88-0.96C88.06,226.99,88.5,226.89,89,226.89z
			 M89,227.82c-0.33,0-0.61,0.11-0.82,0.33s-0.33,0.54-0.38,0.96h2.33c0-0.25-0.04-0.48-0.12-0.67s-0.21-0.34-0.38-0.46
			S89.26,227.82,89,227.82z"/>
		<path class="st10" d="M94.73,231.5c0.16,0,0.31-0.01,0.46-0.04c0.15-0.03,0.28-0.06,0.41-0.1v0.94c-0.13,0.06-0.31,0.11-0.52,0.16
			c-0.21,0.04-0.44,0.07-0.67,0.07c-0.31,0-0.58-0.05-0.83-0.16s-0.45-0.28-0.6-0.54c-0.15-0.25-0.23-0.61-0.23-1.06v-2.82h-0.73
			v-0.55l0.8-0.44l0.4-1.15h0.79v1.19h1.54v0.95h-1.54v2.81c0,0.25,0.07,0.44,0.2,0.57C94.34,231.43,94.52,231.5,94.73,231.5z"/>
		<path class="st10" d="M97.32,224.9c0.19,0,0.35,0.05,0.49,0.14c0.14,0.1,0.21,0.27,0.21,0.52c0,0.24-0.07,0.41-0.21,0.51
			c-0.14,0.1-0.3,0.16-0.49,0.16c-0.2,0-0.37-0.05-0.5-0.16c-0.13-0.1-0.2-0.27-0.2-0.51c0-0.25,0.07-0.42,0.2-0.52
			C96.95,224.94,97.12,224.9,97.32,224.9z M97.95,226.99v5.42h-1.26v-5.42H97.95z"/>
		<path class="st10" d="M102.46,226.89c0.61,0,1.08,0.16,1.42,0.47c0.34,0.31,0.52,0.82,0.52,1.52v3.53h-1.26v-3.28
			c0-0.41-0.08-0.71-0.24-0.92c-0.16-0.2-0.41-0.31-0.76-0.31c-0.51,0-0.85,0.16-1.04,0.48c-0.19,0.32-0.28,0.77-0.28,1.38v2.65
			h-1.26v-5.42h0.97l0.18,0.71h0.07c0.12-0.19,0.27-0.34,0.44-0.46c0.17-0.12,0.37-0.21,0.58-0.26
			C102.01,226.91,102.23,226.89,102.46,226.89z"/>
		<path class="st10" d="M107.8,226.89c0.34,0,0.65,0.07,0.92,0.2c0.27,0.13,0.5,0.33,0.69,0.6h0.05l0.12-0.7h1.05v5.46
			c0,0.51-0.1,0.95-0.29,1.29c-0.19,0.35-0.48,0.62-0.87,0.79c-0.39,0.18-0.87,0.27-1.45,0.27c-0.39,0-0.74-0.03-1.07-0.08
			c-0.33-0.05-0.64-0.13-0.93-0.25v-1.04c0.31,0.13,0.64,0.24,0.99,0.31s0.71,0.11,1.09,0.11c0.41,0,0.73-0.12,0.95-0.35
			s0.33-0.57,0.33-1v-0.14c0-0.1,0-0.22,0.01-0.35s0.02-0.24,0.03-0.32h-0.04c-0.19,0.28-0.41,0.49-0.68,0.62s-0.57,0.2-0.92,0.2
			c-0.66,0-1.18-0.25-1.55-0.74s-0.56-1.18-0.56-2.06c0-0.88,0.19-1.57,0.57-2.07C106.61,227.14,107.13,226.89,107.8,226.89z
			 M108.13,227.92c-0.25,0-0.47,0.07-0.64,0.21c-0.18,0.14-0.31,0.34-0.4,0.61s-0.13,0.6-0.13,1c0,0.59,0.1,1.03,0.3,1.33
			s0.5,0.45,0.9,0.45c0.23,0,0.42-0.03,0.58-0.08c0.16-0.06,0.29-0.15,0.4-0.28s0.18-0.3,0.24-0.5c0.05-0.2,0.08-0.45,0.08-0.74
			v-0.19c0-0.43-0.05-0.78-0.14-1.04c-0.09-0.26-0.24-0.46-0.42-0.58C108.69,227.98,108.44,227.92,108.13,227.92z"/>
		<path class="st10" d="M117.94,232.41h-1.26v-4.45c0-0.15,0-0.3,0-0.45c0-0.15,0.01-0.31,0.01-0.47c0.01-0.16,0.01-0.3,0.02-0.43
			c-0.07,0.07-0.15,0.15-0.25,0.24c-0.1,0.09-0.2,0.18-0.31,0.27l-0.8,0.64l-0.63-0.78l2.16-1.71h1.05V232.41z"/>
		<path class="st10" d="M125.05,228.84c0,0.57-0.04,1.09-0.13,1.54c-0.09,0.45-0.23,0.84-0.42,1.15c-0.2,0.32-0.45,0.56-0.76,0.73
			c-0.31,0.17-0.69,0.25-1.14,0.25c-0.56,0-1.02-0.15-1.38-0.44c-0.36-0.29-0.63-0.71-0.8-1.26s-0.26-1.2-0.26-1.97
			c0-0.77,0.08-1.43,0.24-1.98c0.16-0.55,0.42-0.97,0.77-1.26c0.36-0.29,0.83-0.44,1.42-0.44c0.56,0,1.02,0.15,1.38,0.44
			c0.36,0.29,0.63,0.71,0.8,1.26S125.05,228.06,125.05,228.84z M121.43,228.84c0,0.58,0.04,1.06,0.11,1.45
			c0.07,0.39,0.2,0.68,0.37,0.88c0.17,0.2,0.4,0.29,0.69,0.29c0.29,0,0.53-0.1,0.7-0.29s0.29-0.49,0.37-0.88
			c0.08-0.39,0.12-0.88,0.12-1.46c0-0.59-0.04-1.08-0.12-1.47c-0.08-0.39-0.2-0.68-0.37-0.88c-0.17-0.2-0.4-0.29-0.7-0.29
			c-0.29,0-0.52,0.1-0.69,0.29c-0.17,0.2-0.29,0.49-0.37,0.88S121.43,228.24,121.43,228.84z"/>
		<path class="st10" d="M127.44,225.17c0.54,0,0.95,0.2,1.23,0.59c0.28,0.39,0.42,0.94,0.42,1.64s-0.13,1.26-0.4,1.66
			s-0.67,0.59-1.23,0.59c-0.52,0-0.92-0.2-1.19-0.59s-0.41-0.95-0.41-1.66s0.13-1.25,0.38-1.64
			C126.48,225.36,126.89,225.17,127.44,225.17z M127.45,226.04c-0.19,0-0.34,0.11-0.43,0.34s-0.13,0.57-0.13,1.03
			c0,0.45,0.04,0.79,0.13,1.03c0.09,0.23,0.23,0.34,0.43,0.34c0.2,0,0.35-0.11,0.44-0.34s0.14-0.57,0.14-1.03s-0.05-0.8-0.14-1.03
			S127.64,226.04,127.45,226.04z M132.33,225.27l-3.96,7.14h-1.02l3.96-7.14H132.33z M132.21,228.02c0.53,0,0.94,0.2,1.21,0.58
			s0.42,0.94,0.42,1.64c0,0.71-0.13,1.26-0.4,1.66c-0.26,0.4-0.67,0.59-1.23,0.59c-0.52,0-0.92-0.2-1.19-0.59s-0.41-0.95-0.41-1.66
			c0-0.71,0.13-1.25,0.38-1.64C131.24,228.21,131.65,228.02,132.21,228.02z M132.21,228.9c-0.19,0-0.33,0.11-0.42,0.33
			c-0.09,0.22-0.14,0.57-0.14,1.03s0.04,0.8,0.14,1.03c0.09,0.23,0.23,0.35,0.42,0.35c0.2,0,0.35-0.11,0.44-0.34
			s0.15-0.57,0.15-1.04c0-0.46-0.05-0.8-0.15-1.03S132.41,228.9,132.21,228.9z"/>
	</g>
</g>
<g>
	<g>
		<path class="st10" d="M36.22,174.65c0,0.55-0.07,1.05-0.2,1.5c-0.14,0.45-0.34,0.84-0.62,1.17c-0.28,0.33-0.63,0.58-1.05,0.75
			c-0.42,0.17-0.92,0.26-1.48,0.26c-0.57,0-1.07-0.09-1.5-0.26c-0.42-0.18-0.77-0.43-1.04-0.75s-0.48-0.71-0.62-1.17
			s-0.21-0.96-0.21-1.51c0-0.74,0.12-1.38,0.37-1.93c0.24-0.55,0.61-0.97,1.11-1.27c0.5-0.3,1.13-0.46,1.89-0.46
			c0.75,0,1.38,0.15,1.87,0.46c0.49,0.3,0.86,0.73,1.11,1.28C36.1,173.27,36.22,173.91,36.22,174.65z M30.85,174.65
			c0,0.54,0.07,1,0.21,1.39c0.14,0.39,0.36,0.68,0.66,0.89c0.3,0.21,0.67,0.31,1.13,0.31c0.47,0,0.86-0.1,1.15-0.31
			c0.29-0.21,0.51-0.5,0.65-0.89s0.21-0.85,0.21-1.39c0-0.81-0.16-1.44-0.47-1.9s-0.82-0.69-1.53-0.69c-0.47,0-0.85,0.1-1.14,0.31
			c-0.3,0.21-0.52,0.5-0.66,0.89C30.92,173.65,30.85,174.11,30.85,174.65z"/>
		<path class="st10" d="M40.47,172.71c0.63,0,1.14,0.24,1.53,0.71c0.39,0.47,0.58,1.17,0.58,2.09c0,0.61-0.09,1.13-0.27,1.55
			s-0.43,0.74-0.75,0.95c-0.32,0.21-0.69,0.32-1.12,0.32c-0.26,0-0.49-0.04-0.69-0.1c-0.2-0.07-0.37-0.16-0.51-0.27
			c-0.14-0.11-0.26-0.23-0.36-0.35H38.8c0.03,0.12,0.05,0.25,0.06,0.4c0.01,0.15,0.02,0.29,0.02,0.43v2.2h-1.26v-7.82h1.02
			l0.18,0.72h0.06c0.1-0.15,0.22-0.29,0.36-0.42c0.14-0.12,0.32-0.22,0.52-0.29S40.21,172.71,40.47,172.71z M40.11,173.73
			c-0.29,0-0.53,0.06-0.71,0.17s-0.31,0.29-0.39,0.54s-0.12,0.54-0.13,0.9v0.16c0,0.39,0.04,0.71,0.11,0.98
			c0.08,0.27,0.21,0.47,0.39,0.61c0.18,0.14,0.43,0.21,0.75,0.21c0.27,0,0.48-0.07,0.65-0.22s0.3-0.35,0.38-0.62
			c0.08-0.27,0.12-0.59,0.12-0.96c0-0.56-0.1-0.99-0.29-1.3C40.82,173.89,40.52,173.73,40.11,173.73z"/>
		<path class="st10" d="M46.06,172.71c0.49,0,0.9,0.1,1.25,0.29c0.35,0.2,0.62,0.48,0.81,0.84s0.29,0.8,0.29,1.32v0.64h-3.58
			c0.01,0.49,0.15,0.88,0.41,1.14c0.26,0.27,0.62,0.41,1.08,0.41c0.35,0,0.67-0.04,0.95-0.11c0.28-0.07,0.56-0.17,0.85-0.3v1.01
			c-0.27,0.13-0.54,0.22-0.83,0.28c-0.29,0.06-0.63,0.09-1.03,0.09c-0.53,0-1-0.1-1.41-0.3s-0.73-0.51-0.96-0.92
			c-0.23-0.41-0.34-0.93-0.34-1.54c0-0.62,0.1-1.14,0.31-1.57c0.21-0.42,0.5-0.74,0.88-0.96C45.13,172.82,45.56,172.71,46.06,172.71
			z M46.06,173.64c-0.33,0-0.61,0.11-0.82,0.32c-0.21,0.22-0.33,0.54-0.38,0.97h2.33c0-0.25-0.04-0.48-0.12-0.67
			c-0.08-0.19-0.21-0.34-0.38-0.45C46.54,173.7,46.32,173.64,46.06,173.64z"/>
		<path class="st10" d="M52.53,172.71c0.08,0,0.17,0,0.28,0.01c0.11,0.01,0.2,0.02,0.27,0.04l-0.11,1.17
			c-0.06-0.01-0.14-0.03-0.23-0.04c-0.1-0.01-0.18-0.02-0.26-0.02c-0.2,0-0.39,0.03-0.57,0.1c-0.18,0.06-0.35,0.16-0.49,0.28
			c-0.14,0.12-0.26,0.28-0.34,0.48c-0.08,0.19-0.12,0.42-0.12,0.69v2.81h-1.26v-5.42h0.97l0.18,0.94h0.06
			c0.11-0.19,0.24-0.37,0.4-0.52c0.16-0.16,0.34-0.28,0.55-0.38C52.07,172.76,52.29,172.71,52.53,172.71z"/>
		<path class="st10" d="M56.24,172.71c0.7,0,1.23,0.15,1.6,0.46c0.36,0.3,0.54,0.78,0.54,1.42v3.64h-0.89l-0.25-0.75H57.2
			c-0.15,0.19-0.31,0.35-0.47,0.48c-0.16,0.13-0.35,0.22-0.56,0.28c-0.21,0.06-0.46,0.08-0.76,0.08c-0.32,0-0.61-0.06-0.87-0.18
			s-0.46-0.3-0.6-0.55s-0.22-0.57-0.22-0.95c0-0.56,0.2-0.98,0.61-1.27c0.41-0.28,1.03-0.44,1.87-0.46l0.94-0.03v-0.27
			c0-0.35-0.08-0.59-0.25-0.74c-0.17-0.15-0.4-0.22-0.7-0.22c-0.27,0-0.54,0.04-0.79,0.12c-0.25,0.08-0.5,0.17-0.74,0.28l-0.4-0.88
			c0.27-0.14,0.57-0.25,0.91-0.34C55.51,172.76,55.87,172.71,56.24,172.71z M56.47,175.69c-0.55,0.02-0.94,0.12-1.15,0.29
			c-0.21,0.17-0.32,0.4-0.32,0.68c0,0.25,0.08,0.44,0.23,0.55s0.35,0.17,0.59,0.17c0.37,0,0.68-0.1,0.93-0.31
			c0.25-0.21,0.38-0.52,0.38-0.94v-0.46L56.47,175.69z"/>
		<path class="st10" d="M62.06,177.32c0.16,0,0.31-0.01,0.46-0.04s0.28-0.07,0.41-0.11v0.94c-0.13,0.06-0.31,0.11-0.52,0.16
			c-0.21,0.04-0.44,0.06-0.67,0.06c-0.31,0-0.58-0.05-0.83-0.16c-0.25-0.1-0.45-0.28-0.6-0.53c-0.15-0.25-0.23-0.61-0.23-1.06v-2.82
			h-0.73v-0.55l0.8-0.44l0.4-1.15h0.79v1.19h1.54v0.95h-1.54v2.81c0,0.25,0.07,0.44,0.2,0.56
			C61.68,177.26,61.85,177.32,62.06,177.32z"/>
		<path class="st10" d="M64.65,170.72c0.19,0,0.35,0.05,0.49,0.14c0.14,0.1,0.21,0.27,0.21,0.51c0,0.24-0.07,0.41-0.21,0.52
			c-0.14,0.1-0.3,0.15-0.49,0.15c-0.2,0-0.37-0.05-0.5-0.15c-0.13-0.1-0.2-0.28-0.2-0.52c0-0.25,0.07-0.42,0.2-0.51
			C64.29,170.77,64.45,170.72,64.65,170.72z M65.28,172.81v5.42h-1.26v-5.42H65.28z"/>
		<path class="st10" d="M71.73,175.51c0,0.45-0.06,0.85-0.18,1.2s-0.29,0.64-0.51,0.89c-0.22,0.24-0.5,0.43-0.82,0.55
			c-0.32,0.12-0.68,0.18-1.08,0.18c-0.37,0-0.71-0.06-1.02-0.18c-0.31-0.12-0.58-0.31-0.82-0.55c-0.23-0.24-0.41-0.54-0.54-0.89
			c-0.13-0.35-0.19-0.75-0.19-1.2c0-0.6,0.1-1.11,0.31-1.52c0.21-0.41,0.5-0.73,0.9-0.95c0.39-0.22,0.85-0.33,1.38-0.33
			c0.51,0,0.95,0.11,1.33,0.33c0.38,0.22,0.68,0.53,0.91,0.95C71.62,174.4,71.73,174.91,71.73,175.51z M67.86,175.51
			c0,0.38,0.04,0.71,0.13,0.98c0.09,0.27,0.23,0.47,0.42,0.62c0.19,0.14,0.43,0.21,0.74,0.21c0.31,0,0.55-0.07,0.75-0.21
			c0.19-0.14,0.33-0.35,0.42-0.62c0.09-0.27,0.13-0.59,0.13-0.98c0-0.39-0.04-0.71-0.14-0.97c-0.09-0.26-0.23-0.46-0.42-0.6
			c-0.19-0.14-0.43-0.21-0.73-0.21c-0.45,0-0.78,0.15-0.99,0.46S67.86,174.94,67.86,175.51z"/>
		<path class="st10" d="M75.93,172.71c0.61,0,1.08,0.16,1.42,0.47c0.34,0.31,0.52,0.82,0.52,1.52v3.53h-1.26v-3.28
			c0-0.41-0.08-0.71-0.24-0.92c-0.16-0.2-0.41-0.3-0.76-0.3c-0.51,0-0.85,0.16-1.04,0.47s-0.28,0.78-0.28,1.38v2.65h-1.26v-5.42H74
			l0.18,0.71h0.07c0.12-0.19,0.27-0.34,0.44-0.46c0.17-0.12,0.37-0.21,0.58-0.27C75.49,172.74,75.71,172.71,75.93,172.71z"/>
		<path class="st10" d="M83.14,176.66c0,0.36-0.09,0.67-0.26,0.92c-0.17,0.25-0.43,0.44-0.77,0.57c-0.34,0.13-0.75,0.19-1.23,0.19
			c-0.38,0-0.71-0.03-0.98-0.08c-0.27-0.05-0.53-0.14-0.78-0.25v-1.07c0.27,0.13,0.56,0.23,0.89,0.32c0.33,0.09,0.63,0.13,0.91,0.13
			c0.35,0,0.6-0.05,0.75-0.16c0.15-0.11,0.23-0.25,0.23-0.43c0-0.11-0.03-0.2-0.09-0.29c-0.06-0.09-0.18-0.18-0.35-0.27
			c-0.17-0.1-0.44-0.22-0.79-0.37c-0.35-0.14-0.64-0.28-0.87-0.42c-0.23-0.14-0.4-0.31-0.52-0.5c-0.12-0.2-0.17-0.45-0.17-0.75
			c0-0.49,0.19-0.86,0.58-1.11s0.9-0.38,1.53-0.38c0.33,0,0.65,0.03,0.95,0.1c0.3,0.06,0.59,0.17,0.89,0.3l-0.4,0.93
			c-0.25-0.11-0.49-0.2-0.73-0.27s-0.49-0.11-0.75-0.11c-0.27,0-0.48,0.04-0.62,0.12c-0.14,0.08-0.21,0.2-0.21,0.34
			c0,0.11,0.04,0.21,0.11,0.29c0.07,0.08,0.19,0.17,0.37,0.25c0.18,0.08,0.43,0.19,0.76,0.33c0.33,0.13,0.6,0.26,0.83,0.4
			c0.23,0.14,0.41,0.3,0.53,0.5C83.08,176.1,83.14,176.36,83.14,176.66z"/>
		<path class="st10" d="M92.65,178.23h-1.26v-4.45c0-0.15,0-0.3,0-0.45c0-0.15,0.01-0.31,0.01-0.46s0.01-0.3,0.02-0.43
			c-0.07,0.07-0.15,0.14-0.25,0.23c-0.1,0.09-0.2,0.18-0.31,0.28l-0.8,0.64l-0.63-0.78l2.16-1.71h1.05V178.23z"/>
		<path class="st10" d="M99.76,174.66c0,0.57-0.04,1.09-0.13,1.54s-0.23,0.84-0.42,1.16c-0.2,0.32-0.45,0.56-0.76,0.72
			c-0.31,0.17-0.69,0.25-1.14,0.25c-0.56,0-1.02-0.15-1.38-0.44c-0.36-0.29-0.63-0.71-0.8-1.26c-0.17-0.55-0.26-1.2-0.26-1.97
			c0-0.77,0.08-1.43,0.24-1.98c0.16-0.55,0.42-0.97,0.77-1.26c0.36-0.29,0.83-0.44,1.42-0.44c0.56,0,1.02,0.14,1.38,0.43
			c0.36,0.29,0.63,0.71,0.8,1.26C99.67,173.23,99.76,173.89,99.76,174.66z M96.14,174.66c0,0.58,0.04,1.07,0.11,1.46
			s0.2,0.68,0.37,0.88c0.17,0.2,0.4,0.29,0.69,0.29c0.29,0,0.53-0.1,0.7-0.29s0.29-0.48,0.37-0.88c0.08-0.39,0.12-0.88,0.12-1.46
			s-0.04-1.08-0.12-1.46c-0.08-0.39-0.2-0.68-0.37-0.88s-0.4-0.29-0.7-0.29c-0.29,0-0.52,0.1-0.69,0.29s-0.29,0.49-0.37,0.88
			S96.14,174.07,96.14,174.66z"/>
		<path class="st10" d="M102.15,170.99c0.54,0,0.95,0.2,1.23,0.58c0.28,0.39,0.42,0.94,0.42,1.65c0,0.71-0.13,1.26-0.4,1.65
			s-0.67,0.6-1.23,0.6c-0.52,0-0.92-0.2-1.19-0.6s-0.41-0.95-0.41-1.65c0-0.71,0.13-1.26,0.38-1.65
			C101.2,171.19,101.6,170.99,102.15,170.99z M102.16,171.86c-0.19,0-0.34,0.11-0.43,0.34s-0.13,0.57-0.13,1.03
			c0,0.45,0.04,0.79,0.13,1.02c0.09,0.23,0.23,0.35,0.43,0.35c0.2,0,0.35-0.11,0.44-0.34c0.09-0.23,0.14-0.57,0.14-1.03
			s-0.05-0.8-0.14-1.03S102.35,171.86,102.16,171.86z M107.04,171.09l-3.96,7.14h-1.02l3.96-7.14H107.04z M106.92,173.84
			c0.53,0,0.94,0.2,1.21,0.58c0.28,0.39,0.42,0.94,0.42,1.65s-0.13,1.26-0.4,1.66c-0.26,0.4-0.67,0.59-1.23,0.59
			c-0.52,0-0.92-0.2-1.19-0.59s-0.41-0.95-0.41-1.66s0.13-1.25,0.38-1.65C105.96,174.04,106.36,173.84,106.92,173.84z
			 M106.92,174.72c-0.19,0-0.33,0.11-0.42,0.33c-0.09,0.22-0.14,0.56-0.14,1.02s0.04,0.8,0.14,1.04c0.09,0.23,0.23,0.34,0.42,0.34
			c0.2,0,0.35-0.11,0.44-0.34s0.15-0.57,0.15-1.04c0-0.46-0.05-0.8-0.15-1.02C107.27,174.83,107.12,174.72,106.92,174.72z"/>
	</g>
</g>
<g>
	<g>
		<path class="st10" d="M33.7,118.76c0.93,0,1.6,0.19,2.03,0.58c0.42,0.39,0.63,0.92,0.63,1.6c0,0.31-0.05,0.6-0.14,0.88
			c-0.09,0.28-0.25,0.52-0.47,0.75c-0.22,0.22-0.51,0.39-0.87,0.52c-0.36,0.13-0.8,0.19-1.33,0.19h-0.71v2.63h-1.28v-7.14H33.7z
			 M33.62,119.82h-0.77v2.39h0.58c0.35,0,0.64-0.04,0.88-0.12s0.43-0.21,0.56-0.4c0.13-0.18,0.19-0.41,0.19-0.7
			c0-0.39-0.12-0.69-0.35-0.88S34.11,119.82,33.62,119.82z"/>
		<path class="st10" d="M39.79,120.38c0.7,0,1.23,0.15,1.6,0.46c0.36,0.3,0.54,0.78,0.54,1.42v3.64h-0.89l-0.25-0.75h-0.04
			c-0.15,0.19-0.31,0.35-0.47,0.48c-0.16,0.13-0.35,0.22-0.56,0.28c-0.21,0.06-0.46,0.08-0.76,0.08c-0.32,0-0.61-0.06-0.87-0.18
			s-0.46-0.3-0.6-0.55s-0.22-0.57-0.22-0.95c0-0.56,0.2-0.98,0.61-1.27c0.41-0.28,1.03-0.44,1.87-0.46l0.94-0.03v-0.27
			c0-0.35-0.08-0.59-0.25-0.74c-0.17-0.15-0.4-0.22-0.7-0.22c-0.27,0-0.54,0.04-0.79,0.12c-0.25,0.08-0.5,0.17-0.74,0.28l-0.4-0.88
			c0.27-0.14,0.57-0.25,0.91-0.34C39.06,120.43,39.42,120.38,39.79,120.38z M40.03,123.36c-0.55,0.02-0.94,0.12-1.15,0.29
			c-0.21,0.17-0.32,0.4-0.32,0.69c0,0.25,0.08,0.44,0.23,0.55s0.35,0.17,0.59,0.17c0.37,0,0.68-0.1,0.93-0.31
			c0.25-0.21,0.38-0.52,0.38-0.94v-0.46L40.03,123.36z"/>
		<path class="st10" d="M46.36,120.38c0.08,0,0.17,0,0.28,0.01c0.11,0.01,0.2,0.02,0.27,0.04l-0.11,1.17
			c-0.06-0.01-0.14-0.03-0.23-0.04c-0.1-0.01-0.18-0.02-0.26-0.02c-0.2,0-0.39,0.03-0.57,0.1c-0.18,0.06-0.35,0.16-0.49,0.28
			c-0.14,0.12-0.26,0.28-0.34,0.48c-0.08,0.19-0.12,0.42-0.12,0.69v2.81h-1.26v-5.42h0.97l0.18,0.94h0.06
			c0.11-0.19,0.24-0.37,0.4-0.52s0.34-0.28,0.55-0.38S46.12,120.38,46.36,120.38z"/>
		<path class="st10" d="M50.01,124.99c0.16,0,0.31-0.01,0.46-0.04c0.15-0.03,0.28-0.06,0.41-0.1v0.94
			c-0.13,0.06-0.31,0.11-0.52,0.16c-0.21,0.04-0.44,0.06-0.67,0.06c-0.31,0-0.58-0.05-0.83-0.16c-0.25-0.1-0.45-0.28-0.6-0.53
			c-0.15-0.25-0.23-0.61-0.23-1.06v-2.82H47.3v-0.55l0.8-0.44l0.4-1.15h0.79v1.19h1.54v0.95h-1.54v2.81c0,0.25,0.07,0.44,0.2,0.56
			C49.62,124.93,49.79,124.99,50.01,124.99z"/>
		<path class="st10" d="M54.87,120.38c0.61,0,1.08,0.16,1.42,0.47c0.34,0.31,0.52,0.82,0.52,1.52v3.53h-1.26v-3.28
			c0-0.41-0.08-0.71-0.24-0.92c-0.16-0.2-0.41-0.31-0.76-0.31c-0.51,0-0.85,0.16-1.04,0.48c-0.19,0.32-0.28,0.77-0.28,1.38v2.65
			h-1.26v-5.42h0.97l0.18,0.71h0.07c0.12-0.19,0.27-0.34,0.44-0.46c0.17-0.12,0.37-0.21,0.58-0.27
			C54.42,120.41,54.64,120.38,54.87,120.38z"/>
		<path class="st10" d="M60.57,120.38c0.49,0,0.9,0.1,1.25,0.29c0.35,0.2,0.62,0.48,0.81,0.84s0.29,0.8,0.29,1.32v0.64h-3.58
			c0.01,0.49,0.15,0.88,0.41,1.15c0.26,0.27,0.62,0.4,1.08,0.4c0.35,0,0.67-0.03,0.95-0.1c0.28-0.07,0.56-0.17,0.85-0.3v1.01
			c-0.27,0.13-0.54,0.22-0.83,0.28c-0.29,0.06-0.63,0.09-1.03,0.09c-0.53,0-1-0.1-1.41-0.31c-0.41-0.2-0.73-0.51-0.96-0.92
			c-0.23-0.41-0.34-0.93-0.34-1.54c0-0.62,0.1-1.14,0.31-1.56s0.5-0.74,0.88-0.96C59.63,120.49,60.07,120.38,60.57,120.38z
			 M60.57,121.31c-0.33,0-0.61,0.11-0.82,0.32c-0.21,0.22-0.33,0.54-0.38,0.97h2.33c0-0.25-0.04-0.48-0.12-0.67
			c-0.08-0.19-0.21-0.34-0.38-0.45C61.04,121.37,60.83,121.31,60.57,121.31z"/>
		<path class="st10" d="M67.04,120.38c0.08,0,0.17,0,0.28,0.01c0.11,0.01,0.2,0.02,0.27,0.04l-0.11,1.17
			c-0.06-0.01-0.14-0.03-0.23-0.04c-0.1-0.01-0.18-0.02-0.26-0.02c-0.2,0-0.39,0.03-0.57,0.1c-0.18,0.06-0.35,0.16-0.49,0.28
			c-0.14,0.12-0.26,0.28-0.34,0.48c-0.08,0.19-0.12,0.42-0.12,0.69v2.81H64.2v-5.42h0.97l0.18,0.94h0.06
			c0.11-0.19,0.24-0.37,0.4-0.52s0.34-0.28,0.55-0.38S66.8,120.38,67.04,120.38z"/>
		<path class="st10" d="M74.29,125.9h-1.26v-4.45c0-0.15,0-0.3,0-0.45c0-0.15,0.01-0.31,0.01-0.47c0.01-0.16,0.01-0.3,0.02-0.43
			c-0.07,0.07-0.15,0.15-0.25,0.23c-0.1,0.09-0.2,0.18-0.31,0.27l-0.8,0.64l-0.63-0.78l2.16-1.71h1.05V125.9z"/>
		<path class="st10" d="M81.39,122.33c0,0.57-0.04,1.09-0.13,1.54c-0.09,0.45-0.23,0.84-0.42,1.15c-0.2,0.32-0.45,0.56-0.76,0.73
			c-0.31,0.17-0.69,0.25-1.14,0.25c-0.56,0-1.02-0.15-1.38-0.44c-0.36-0.29-0.63-0.71-0.8-1.26c-0.17-0.55-0.26-1.2-0.26-1.97
			c0-0.77,0.08-1.43,0.24-1.98c0.16-0.55,0.42-0.97,0.77-1.26s0.83-0.44,1.42-0.44c0.56,0,1.02,0.15,1.38,0.44
			c0.36,0.29,0.63,0.71,0.8,1.26C81.31,120.9,81.39,121.56,81.39,122.33z M77.77,122.33c0,0.58,0.04,1.06,0.11,1.45
			c0.07,0.39,0.2,0.68,0.37,0.88s0.4,0.29,0.69,0.29c0.29,0,0.53-0.1,0.7-0.29s0.29-0.48,0.37-0.88c0.08-0.39,0.12-0.88,0.12-1.46
			c0-0.59-0.04-1.08-0.12-1.47c-0.08-0.39-0.2-0.68-0.37-0.88c-0.17-0.2-0.4-0.29-0.7-0.29c-0.29,0-0.52,0.1-0.69,0.29
			c-0.17,0.2-0.29,0.49-0.37,0.88S77.77,121.74,77.77,122.33z"/>
		<path class="st10" d="M83.79,118.66c0.54,0,0.95,0.2,1.23,0.59c0.28,0.39,0.42,0.94,0.42,1.65c0,0.71-0.13,1.26-0.4,1.65
			s-0.67,0.6-1.23,0.6c-0.52,0-0.92-0.2-1.19-0.6s-0.41-0.95-0.41-1.65c0-0.71,0.13-1.26,0.38-1.65
			C82.83,118.86,83.23,118.66,83.79,118.66z M83.8,119.53c-0.19,0-0.34,0.11-0.43,0.34s-0.13,0.57-0.13,1.03
			c0,0.45,0.04,0.79,0.13,1.02s0.23,0.35,0.43,0.35c0.2,0,0.35-0.11,0.44-0.34c0.09-0.23,0.14-0.57,0.14-1.03s-0.05-0.8-0.14-1.03
			S83.99,119.53,83.8,119.53z M88.68,118.76l-3.96,7.14H83.7l3.96-7.14H88.68z M88.56,121.51c0.53,0,0.94,0.2,1.21,0.58
			c0.28,0.39,0.42,0.94,0.42,1.65c0,0.71-0.13,1.26-0.4,1.66c-0.26,0.4-0.67,0.59-1.23,0.59c-0.52,0-0.92-0.2-1.19-0.59
			s-0.41-0.95-0.41-1.66c0-0.71,0.13-1.25,0.38-1.65C87.59,121.71,88,121.51,88.56,121.51z M88.56,122.39
			c-0.19,0-0.33,0.11-0.42,0.33c-0.09,0.22-0.14,0.56-0.14,1.02s0.04,0.8,0.14,1.03c0.09,0.23,0.23,0.35,0.42,0.35
			c0.2,0,0.35-0.11,0.44-0.34s0.15-0.57,0.15-1.04c0-0.46-0.05-0.8-0.15-1.02C88.9,122.5,88.76,122.39,88.56,122.39z"/>
	</g>
</g>
<g>
	<g>
		<path class="st10" d="M93.68,41.16H92.4V35.1h-2.05v-1.08h5.38v1.08h-2.05V41.16z"/>
		<path class="st10" d="M98.88,35.64c0.49,0,0.9,0.1,1.25,0.29c0.35,0.2,0.62,0.48,0.81,0.84s0.29,0.8,0.29,1.32v0.64h-3.58
			c0.01,0.49,0.15,0.88,0.41,1.15c0.26,0.27,0.62,0.4,1.08,0.4c0.35,0,0.67-0.03,0.95-0.1c0.28-0.07,0.56-0.17,0.85-0.3v1.01
			c-0.27,0.13-0.54,0.22-0.83,0.28c-0.29,0.06-0.63,0.09-1.03,0.09c-0.53,0-1-0.1-1.41-0.31c-0.41-0.2-0.73-0.51-0.96-0.92
			c-0.23-0.41-0.34-0.93-0.34-1.54c0-0.62,0.1-1.14,0.31-1.56s0.5-0.74,0.88-0.96C97.94,35.75,98.38,35.64,98.88,35.64z
			 M98.88,36.57c-0.33,0-0.61,0.11-0.82,0.32c-0.21,0.22-0.33,0.54-0.38,0.97h2.33c0-0.25-0.04-0.48-0.12-0.67
			c-0.08-0.19-0.21-0.34-0.38-0.45C99.35,36.62,99.14,36.57,98.88,36.57z"/>
		<path class="st10" d="M104.67,35.64c0.7,0,1.23,0.15,1.6,0.46c0.36,0.3,0.54,0.78,0.54,1.42v3.64h-0.89l-0.25-0.75h-0.04
			c-0.15,0.19-0.31,0.35-0.47,0.48c-0.16,0.13-0.35,0.22-0.56,0.28c-0.21,0.06-0.46,0.08-0.76,0.08c-0.32,0-0.61-0.06-0.87-0.18
			s-0.46-0.3-0.6-0.55s-0.22-0.57-0.22-0.95c0-0.56,0.2-0.98,0.61-1.27c0.41-0.28,1.03-0.44,1.87-0.46l0.94-0.03v-0.27
			c0-0.35-0.08-0.59-0.25-0.74c-0.17-0.15-0.4-0.22-0.7-0.22c-0.27,0-0.54,0.04-0.79,0.12c-0.25,0.08-0.5,0.17-0.74,0.28l-0.4-0.88
			c0.27-0.14,0.57-0.25,0.91-0.34C103.93,35.68,104.29,35.64,104.67,35.64z M104.9,38.62c-0.55,0.02-0.94,0.12-1.15,0.29
			c-0.21,0.17-0.32,0.4-0.32,0.69c0,0.25,0.08,0.44,0.23,0.55s0.35,0.17,0.59,0.17c0.37,0,0.68-0.1,0.93-0.31
			c0.25-0.21,0.38-0.52,0.38-0.94V38.6L104.9,38.62z"/>
		<path class="st10" d="M114.59,35.64c0.61,0,1.08,0.16,1.39,0.47c0.31,0.31,0.46,0.82,0.46,1.52v3.53h-1.26v-3.29
			c0-0.4-0.08-0.7-0.23-0.9c-0.15-0.2-0.38-0.31-0.69-0.31c-0.44,0-0.75,0.14-0.94,0.43s-0.28,0.7-0.28,1.25v2.82h-1.26v-3.29
			c0-0.27-0.03-0.49-0.1-0.67c-0.07-0.18-0.17-0.31-0.3-0.41c-0.13-0.09-0.31-0.13-0.52-0.13c-0.31,0-0.55,0.07-0.73,0.21
			c-0.18,0.14-0.31,0.35-0.38,0.62c-0.07,0.27-0.11,0.61-0.11,1.01v2.65h-1.26v-5.42h0.97l0.18,0.71h0.07
			c0.11-0.19,0.25-0.34,0.42-0.46c0.16-0.12,0.35-0.21,0.55-0.27s0.41-0.08,0.62-0.08c0.41,0,0.75,0.07,1.03,0.21
			c0.28,0.14,0.49,0.35,0.63,0.63h0.1c0.17-0.29,0.4-0.51,0.71-0.64C113.95,35.7,114.27,35.64,114.59,35.64z"/>
		<path class="st10" d="M123.73,41.16h-1.26v-4.45c0-0.15,0-0.3,0-0.45c0-0.15,0.01-0.31,0.01-0.47c0.01-0.16,0.01-0.3,0.02-0.43
			c-0.07,0.07-0.15,0.15-0.25,0.23c-0.1,0.09-0.2,0.18-0.31,0.27l-0.8,0.64l-0.63-0.78l2.16-1.71h1.05V41.16z"/>
		<path class="st10" d="M130.83,37.59c0,0.57-0.04,1.09-0.13,1.54c-0.09,0.45-0.23,0.84-0.42,1.15c-0.2,0.32-0.45,0.56-0.76,0.73
			c-0.31,0.17-0.69,0.25-1.14,0.25c-0.56,0-1.02-0.15-1.38-0.44c-0.36-0.29-0.63-0.71-0.8-1.26c-0.17-0.55-0.26-1.2-0.26-1.97
			c0-0.77,0.08-1.43,0.24-1.98c0.16-0.55,0.42-0.97,0.77-1.26s0.83-0.44,1.42-0.44c0.56,0,1.02,0.15,1.38,0.44
			c0.36,0.29,0.63,0.71,0.8,1.26C130.75,36.15,130.83,36.81,130.83,37.59z M127.21,37.59c0,0.58,0.04,1.06,0.11,1.45
			c0.07,0.39,0.2,0.68,0.37,0.88s0.4,0.29,0.69,0.29c0.29,0,0.53-0.1,0.7-0.29s0.29-0.48,0.37-0.88c0.08-0.39,0.12-0.88,0.12-1.46
			c0-0.59-0.04-1.08-0.12-1.47c-0.08-0.39-0.2-0.68-0.37-0.88c-0.17-0.2-0.4-0.29-0.7-0.29c-0.29,0-0.52,0.1-0.69,0.29
			c-0.17,0.2-0.29,0.49-0.37,0.88S127.21,36.99,127.21,37.59z"/>
		<path class="st10" d="M133.22,33.92c0.54,0,0.95,0.2,1.23,0.59c0.28,0.39,0.42,0.94,0.42,1.65c0,0.71-0.13,1.26-0.4,1.65
			s-0.67,0.6-1.23,0.6c-0.52,0-0.92-0.2-1.19-0.6s-0.41-0.95-0.41-1.65c0-0.71,0.13-1.26,0.38-1.65
			C132.27,34.11,132.67,33.92,133.22,33.92z M133.24,34.79c-0.19,0-0.34,0.11-0.43,0.34s-0.13,0.57-0.13,1.03
			c0,0.45,0.04,0.79,0.13,1.02s0.23,0.35,0.43,0.35c0.2,0,0.35-0.11,0.44-0.34c0.09-0.23,0.14-0.57,0.14-1.03s-0.05-0.8-0.14-1.03
			S133.43,34.79,133.24,34.79z M138.12,34.02l-3.96,7.14h-1.02l3.96-7.14H138.12z M138,36.77c0.53,0,0.94,0.2,1.21,0.58
			c0.28,0.39,0.42,0.94,0.42,1.65c0,0.71-0.13,1.26-0.4,1.66c-0.26,0.4-0.67,0.59-1.23,0.59c-0.52,0-0.92-0.2-1.19-0.59
			s-0.41-0.95-0.41-1.66c0-0.71,0.13-1.25,0.38-1.65C137.03,36.96,137.43,36.77,138,36.77z M138,37.65c-0.19,0-0.33,0.11-0.42,0.33
			c-0.09,0.22-0.14,0.56-0.14,1.02s0.04,0.8,0.14,1.03c0.09,0.23,0.23,0.35,0.42,0.35c0.2,0,0.35-0.11,0.44-0.34
			s0.15-0.57,0.15-1.04c0-0.46-0.05-0.8-0.15-1.02C138.34,37.76,138.2,37.65,138,37.65z"/>
	</g>
</g>
<g>
	<g>
		<path class="st10" d="M139.47,16.47l-0.65-1.89h-2.69l-0.64,1.89h-1.36l2.62-7.17h1.46l2.62,7.17H139.47z M137.87,11.64
			c-0.03-0.09-0.07-0.22-0.12-0.38c-0.05-0.16-0.11-0.33-0.16-0.5s-0.09-0.31-0.12-0.42c-0.03,0.13-0.07,0.29-0.12,0.46
			c-0.05,0.17-0.1,0.34-0.14,0.49c-0.04,0.15-0.08,0.27-0.1,0.35l-0.63,1.84h2.01L137.87,11.64z"/>
		<path class="st10" d="M143.44,16.57c-0.63,0-1.13-0.23-1.52-0.71c-0.39-0.47-0.58-1.17-0.58-2.1c0-0.93,0.2-1.63,0.59-2.1
			c0.39-0.48,0.91-0.71,1.55-0.71c0.27,0,0.5,0.04,0.71,0.1s0.38,0.17,0.53,0.29c0.15,0.12,0.27,0.25,0.37,0.4h0.06
			c-0.02-0.09-0.04-0.24-0.06-0.43c-0.02-0.19-0.03-0.37-0.03-0.54v-1.9h1.26v7.6h-0.98l-0.23-0.71h-0.05
			c-0.1,0.15-0.22,0.28-0.37,0.4c-0.15,0.12-0.32,0.22-0.52,0.3C143.95,16.53,143.71,16.57,143.44,16.57z M143.82,15.55
			c0.47,0,0.8-0.13,0.99-0.4s0.29-0.67,0.29-1.21v-0.16c0-0.59-0.09-1.03-0.27-1.34c-0.18-0.31-0.53-0.46-1.03-0.46
			c-0.38,0-0.67,0.16-0.88,0.48c-0.21,0.32-0.31,0.76-0.31,1.33c0,0.57,0.1,1.01,0.31,1.31C143.13,15.4,143.43,15.55,143.82,15.55z"
			/>
		<path class="st10" d="M149.16,16.47l-2.06-5.42h1.33l1.08,3.13c0.05,0.13,0.09,0.27,0.13,0.42s0.08,0.3,0.1,0.44
			c0.03,0.14,0.05,0.27,0.06,0.38h0.04c0.01-0.11,0.04-0.24,0.07-0.38c0.03-0.14,0.07-0.29,0.12-0.44c0.04-0.15,0.08-0.28,0.12-0.41
			l1.08-3.13h1.33l-2.06,5.42H149.16z"/>
		<path class="st10" d="M154,8.96c0.19,0,0.35,0.05,0.49,0.14c0.14,0.1,0.21,0.27,0.21,0.52c0,0.24-0.07,0.41-0.21,0.52
			c-0.14,0.1-0.3,0.15-0.49,0.15c-0.2,0-0.37-0.05-0.5-0.15c-0.13-0.1-0.2-0.27-0.2-0.52c0-0.25,0.07-0.42,0.2-0.52
			C153.63,9.01,153.8,8.96,154,8.96z M154.63,11.05v5.42h-1.26v-5.42H154.63z"/>
		<path class="st10" d="M159.93,14.9c0,0.36-0.09,0.67-0.26,0.92c-0.17,0.25-0.43,0.44-0.77,0.56c-0.34,0.13-0.75,0.19-1.23,0.19
			c-0.38,0-0.71-0.03-0.98-0.08s-0.53-0.14-0.78-0.25v-1.07c0.27,0.13,0.56,0.23,0.89,0.32c0.33,0.09,0.63,0.13,0.91,0.13
			c0.35,0,0.6-0.05,0.75-0.16c0.15-0.11,0.23-0.25,0.23-0.43c0-0.11-0.03-0.2-0.09-0.29c-0.06-0.09-0.18-0.18-0.35-0.27
			c-0.17-0.1-0.44-0.22-0.79-0.37c-0.35-0.14-0.64-0.28-0.87-0.42c-0.23-0.14-0.4-0.31-0.52-0.5c-0.12-0.2-0.17-0.45-0.17-0.75
			c0-0.49,0.19-0.85,0.58-1.1s0.9-0.38,1.53-0.38c0.33,0,0.65,0.03,0.95,0.1c0.3,0.06,0.59,0.17,0.89,0.3l-0.4,0.93
			c-0.25-0.11-0.49-0.2-0.73-0.27s-0.49-0.11-0.75-0.11c-0.27,0-0.48,0.04-0.62,0.12s-0.21,0.2-0.21,0.34
			c0,0.11,0.04,0.21,0.11,0.29c0.07,0.08,0.19,0.17,0.37,0.25c0.18,0.08,0.43,0.19,0.76,0.33c0.33,0.13,0.6,0.26,0.83,0.4
			c0.23,0.14,0.41,0.31,0.53,0.5C159.87,14.34,159.93,14.59,159.93,14.9z"/>
		<path class="st10" d="M163.32,10.95c0.49,0,0.9,0.1,1.25,0.29c0.35,0.2,0.62,0.48,0.81,0.84s0.29,0.8,0.29,1.32v0.64h-3.58
			c0.01,0.49,0.15,0.88,0.41,1.15c0.26,0.27,0.62,0.4,1.08,0.4c0.35,0,0.67-0.03,0.95-0.1c0.28-0.07,0.56-0.17,0.85-0.3v1.01
			c-0.27,0.13-0.54,0.22-0.83,0.28c-0.29,0.06-0.63,0.09-1.03,0.09c-0.53,0-1-0.1-1.41-0.31c-0.41-0.2-0.73-0.51-0.96-0.92
			c-0.23-0.41-0.34-0.93-0.34-1.54c0-0.62,0.1-1.14,0.31-1.56s0.5-0.74,0.88-0.96C162.38,11.06,162.82,10.95,163.32,10.95z
			 M163.32,11.88c-0.33,0-0.61,0.11-0.82,0.32c-0.21,0.22-0.33,0.54-0.38,0.97h2.33c0-0.25-0.04-0.48-0.12-0.67
			c-0.08-0.19-0.21-0.34-0.38-0.45C163.79,11.93,163.58,11.88,163.32,11.88z"/>
		<path class="st10" d="M169.79,10.95c0.08,0,0.17,0,0.28,0.01c0.11,0.01,0.2,0.02,0.27,0.04l-0.11,1.17
			c-0.06-0.01-0.14-0.03-0.23-0.04c-0.1-0.01-0.18-0.02-0.26-0.02c-0.2,0-0.39,0.03-0.57,0.1c-0.18,0.06-0.35,0.16-0.49,0.28
			c-0.14,0.12-0.26,0.28-0.34,0.48c-0.08,0.19-0.12,0.42-0.12,0.69v2.81h-1.26v-5.42h0.97l0.18,0.94h0.06
			c0.11-0.19,0.24-0.37,0.4-0.52s0.34-0.28,0.55-0.38S169.55,10.95,169.79,10.95z"/>
		<path class="st10" d="M176.04,11.98c0.45,0,0.85,0.08,1.2,0.25c0.35,0.17,0.62,0.41,0.81,0.73c0.2,0.32,0.29,0.71,0.29,1.17
			c0,0.51-0.11,0.94-0.32,1.31c-0.21,0.37-0.53,0.65-0.94,0.85c-0.41,0.2-0.92,0.29-1.52,0.29c-0.37,0-0.72-0.03-1.05-0.1
			c-0.33-0.07-0.61-0.16-0.85-0.29v-1.12c0.25,0.13,0.54,0.24,0.89,0.33c0.35,0.09,0.67,0.13,0.98,0.13c0.32,0,0.59-0.04,0.82-0.13
			c0.23-0.09,0.4-0.23,0.52-0.42s0.18-0.43,0.18-0.73c0-0.4-0.13-0.7-0.38-0.91c-0.25-0.21-0.65-0.31-1.18-0.31
			c-0.19,0-0.39,0.02-0.61,0.05s-0.39,0.07-0.53,0.1l-0.54-0.3l0.27-3.54h3.76v1.1h-2.65l-0.15,1.65c0.11-0.02,0.25-0.04,0.41-0.06
			C175.61,11.99,175.81,11.98,176.04,11.98z"/>
		<path class="st10" d="M180.82,9.23c0.54,0,0.95,0.2,1.23,0.59c0.28,0.39,0.42,0.94,0.42,1.65c0,0.71-0.13,1.26-0.4,1.65
			s-0.67,0.6-1.23,0.6c-0.52,0-0.92-0.2-1.19-0.6s-0.41-0.95-0.41-1.65c0-0.71,0.13-1.26,0.38-1.65
			C179.87,9.42,180.27,9.23,180.82,9.23z M180.83,10.1c-0.19,0-0.34,0.11-0.43,0.34s-0.13,0.57-0.13,1.03
			c0,0.45,0.04,0.79,0.13,1.02s0.23,0.35,0.43,0.35c0.2,0,0.35-0.11,0.44-0.34c0.09-0.23,0.14-0.57,0.14-1.03s-0.05-0.8-0.14-1.03
			S181.02,10.1,180.83,10.1z M185.71,9.33l-3.96,7.14h-1.02l3.96-7.14H185.71z M185.59,12.08c0.53,0,0.94,0.2,1.21,0.58
			c0.28,0.39,0.42,0.94,0.42,1.65c0,0.71-0.13,1.26-0.4,1.66c-0.26,0.4-0.67,0.59-1.23,0.59c-0.52,0-0.92-0.2-1.19-0.59
			s-0.41-0.95-0.41-1.66c0-0.71,0.13-1.25,0.38-1.65C184.62,12.27,185.03,12.08,185.59,12.08z M185.59,12.96
			c-0.19,0-0.33,0.11-0.42,0.33c-0.09,0.22-0.14,0.56-0.14,1.02s0.04,0.8,0.14,1.03c0.09,0.23,0.23,0.35,0.42,0.35
			c0.2,0,0.35-0.11,0.44-0.34s0.15-0.57,0.15-1.04c0-0.46-0.05-0.8-0.15-1.02C185.94,13.07,185.79,12.96,185.59,12.96z"/>
	</g>
</g>
</svg>
